<?xml version="1.0" encoding="UTF-8" standalone="no"?>
<!-- Created with Inkscape (http://www.inkscape.org/) -->

<svg
   xmlns:dc="http://purl.org/dc/elements/1.1/"
   xmlns:cc="http://creativecommons.org/ns#"
   xmlns:rdf="http://www.w3.org/1999/02/22-rdf-syntax-ns#"
   xmlns:svg="http://www.w3.org/2000/svg"
   xmlns="http://www.w3.org/2000/svg"
   xmlns:sodipodi="http://sodipodi.sourceforge.net/DTD/sodipodi-0.dtd"
   xmlns:inkscape="http://www.inkscape.org/namespaces/inkscape"
   width="210mm"
   height="297mm"
   id="svg2"
   version="1.1"
   inkscape:version="0.48.2 r9819"
   sodipodi:docname="concarino.svg">
  <defs
     id="defs4" />
  <sodipodi:namedview
     id="base"
     pagecolor="#ffffff"
     bordercolor="#666666"
     borderopacity="1.0"
     inkscape:pageopacity="0.0"
     inkscape:pageshadow="2"
     inkscape:zoom="0.5302357"
     inkscape:cx="-44.748534"
     inkscape:cy="526.18109"
     inkscape:document-units="px"
     inkscape:current-layer="layer1"
     showgrid="false"
     inkscape:window-width="1280"
     inkscape:window-height="752"
     inkscape:window-x="0"
     inkscape:window-y="0"
     inkscape:window-maximized="1" />
  <metadata
     id="metadata7">
    <rdf:RDF>
      <cc:Work
         rdf:about="">
        <dc:format>image/svg+xml</dc:format>
        <dc:type
           rdf:resource="http://purl.org/dc/dcmitype/StillImage" />
        <dc:title />
      </cc:Work>
    </rdf:RDF>
  </metadata>
  <g
     inkscape:label="Ebene 1"
     inkscape:groupmode="layer"
     id="layer1">
    <path
       transform="matrix(0.81369957,0,0,0.81369957,33.370283,387.49549)"
       d="m 462.05865,328.15594 a 141.44653,141.44653 0 1 1 -282.89306,0 141.44653,141.44653 0 1 1 282.89306,0 z"
       sodipodi:ry="141.44653"
       sodipodi:rx="141.44653"
       sodipodi:cy="328.15594"
       sodipodi:cx="320.61212"
       id="path3006"
       style="fill:none;stroke:#ff0000;stroke-width:0.04354564;stroke-linecap:round;stroke-linejoin:round;stroke-miterlimit:4;stroke-opacity:1;stroke-dasharray:none;stroke-dashoffset:10.62992096"
       sodipodi:type="arc" />
    <g
       id="flowRoot3008"
       style="font-size:24px;font-style:normal;font-variant:normal;font-weight:bold;font-stretch:normal;line-height:125%;letter-spacing:0px;word-spacing:0px;fill:none;fill-opacity:1;stroke:#000000;font-family:Oswald Stencil;-inkscape-font-specification:Oswald Stencil Bold;stroke-opacity:1;stroke-width:0.35433071;stroke-miterlimit:4;stroke-dasharray:none"
       transform="translate(9.5354316,313.21386)">
      <path
         inkscape:connector-curvature="0"
         id="path3010"
         style="font-size:28px;fill:none;stroke:#000000;stroke-opacity:1;stroke-width:0.35433071;stroke-miterlimit:4;stroke-dasharray:none"
         d="m 223.94531,356.52562 c 4.83984,-0.17774 6.19336,-3.9922 6.24805,-8.2168 l 0,-1.87305 -4.22461,0 0,2.32422 c 0,2.00976 -0.28711,4.14258 -2.02344,4.38867 l 0,3.37696 m 0,-21.875 c 1.76367,0.24609 2.00977,2.41992 2.00977,4.36132 l 0,2.07813 4.23828,0 0,-1.85938 c 0,-4.45702 -1.61329,-7.80664 -6.24805,-7.9707 l 0,3.39063 m -0.68359,-3.39063 c -5.0039,0.16406 -6.53516,3.81446 -6.53516,8.38086 l 0,8.53125 c 0,4.4707 1.51759,8.18945 6.53516,8.35352 l 0,-3.36329 c -1.85937,-0.20507 -2.21485,-2.20117 -2.21485,-3.9375 l 0,-10.65039 c 0,-1.73632 0.35548,-3.73242 2.21485,-3.9375 l 0,-3.37695" />
      <path
         inkscape:connector-curvature="0"
         id="path3012"
         style="font-size:28px;fill:none;stroke:#000000;stroke-opacity:1;stroke-width:0.35433071;stroke-miterlimit:4;stroke-dasharray:none"
         d="m 239.05273,331.25999 c -5.0039,0.16406 -6.57617,3.81446 -6.57617,8.38086 l 0,8.62695 c 0,4.4707 1.59962,8.10743 6.57617,8.25782 l 0,-3.36329 c -1.87304,-0.20507 -2.25586,-2.1875 -2.25586,-3.92382 l 0,-10.66407 c 0,-1.73632 0.39649,-3.73242 2.25586,-3.9375 l 0,-3.37695 m 0.6836,3.37695 c 1.87304,0.20508 2.26953,2.18751 2.26953,3.9375 l 0,10.66407 c 0,1.76367 -0.38282,3.71875 -2.26953,3.92382 l 0,3.36329 c 5.01757,-0.16407 6.60351,-3.88282 6.60351,-8.35352 l 0,-8.53125 c 0,-4.58007 -1.59961,-8.2168 -6.60351,-8.38086 l 0,3.37695" />
      <path
         inkscape:connector-curvature="0"
         id="path3014"
         style="font-size:28px;fill:none;stroke:#000000;stroke-opacity:1;stroke-width:0.35433071;stroke-miterlimit:4;stroke-dasharray:none"
         d="m 249.21094,331.69749 0,24.37695 3.71875,0 0,-22.95507 -0.58789,-1.42188 -3.13086,0 m 9.98047,24.37695 3.02148,0 0,-24.37695 -3.5957,0 0,22.94141 0.57422,1.43554 m -5.57813,-12.97461 4.32031,9.81641 0,-8.70898 -4.32031,-9.4336 0,8.32617" />
      <path
         inkscape:connector-curvature="0"
         id="path3016"
         style="font-size:28px;fill:none;stroke:#000000;stroke-opacity:1;stroke-width:0.35433071;stroke-miterlimit:4;stroke-dasharray:none"
         d="m 276.28125,356.52562 c 4.83984,-0.17774 6.19336,-3.9922 6.24805,-8.2168 l 0,-1.87305 -4.22461,0 0,2.32422 c 0,2.00976 -0.28711,4.14258 -2.02344,4.38867 l 0,3.37696 m 0,-21.875 c 1.76367,0.24609 2.00977,2.41992 2.00977,4.36132 l 0,2.07813 4.23828,0 0,-1.85938 c 0,-4.45702 -1.61329,-7.80664 -6.24805,-7.9707 l 0,3.39063 m -0.68359,-3.39063 c -5.0039,0.16406 -6.53516,3.81446 -6.53516,8.38086 l 0,8.53125 c 0,4.4707 1.51758,8.18945 6.53516,8.35352 l 0,-3.36329 c -1.85938,-0.20507 -2.21485,-2.20117 -2.21485,-3.9375 l 0,-10.65039 c 0,-1.73632 0.35547,-3.73242 2.21485,-3.9375 l 0,-3.37695" />
      <path
         inkscape:connector-curvature="0"
         id="path3018"
         style="font-size:28px;fill:none;stroke:#000000;stroke-opacity:1;stroke-width:0.35433071;stroke-miterlimit:4;stroke-dasharray:none"
         d="m 292.37305,331.71116 -3.3086,0 -5.16797,24.36328 4.16993,0 2.70703,-15.51757 1.59961,-8.84571 m -0.94336,9.13282 1.17578,7.24609 -2.48828,0 -0.36914,2.5293 3.17187,0 1.05274,5.45507 4.27929,0 -5.16797,-24.36328 -1.65429,9.13282" />
      <path
         inkscape:connector-curvature="0"
         id="path3020"
         style="font-size:28px;fill:none;stroke:#000000;stroke-opacity:1;stroke-width:0.35433071;stroke-miterlimit:4;stroke-dasharray:none"
         d="m 305.18359,344.71312 0.97071,0 2.83007,11.36132 4.41602,0 -3.45898,-11.94921 c 2.93945,-1.29883 3.0625,-3.81446 3.0625,-6.0293 0,-4.44336 -2.61134,-6.38477 -7.21875,-6.38477 l -0.60157,0 0,3.19922 1.54493,0 c 1.69531,0 1.96875,2.25586 1.96875,3.48633 0,1.20312 -0.31446,3.58203 -2.16016,3.58203 l -1.35352,0 0,2.73438 m -0.68359,11.36132 0,-24.36328 -4.32031,0 0,24.36328 4.32031,0" />
      <path
         inkscape:connector-curvature="0"
         id="path3022"
         style="font-size:28px;fill:none;stroke:#000000;stroke-opacity:1;stroke-width:0.35433071;stroke-miterlimit:4;stroke-dasharray:none"
         d="m 315.47852,356.07444 4.33398,0 0,-24.36328 -4.33398,0 0,24.36328" />
      <path
         inkscape:connector-curvature="0"
         id="path3024"
         style="font-size:28px;fill:none;stroke:#000000;stroke-opacity:1;stroke-width:0.35433071;stroke-miterlimit:4;stroke-dasharray:none"
         d="m 322.98437,331.69749 0,24.37695 3.71875,0 0,-22.95507 -0.58789,-1.42188 -3.13086,0 m 9.98047,24.37695 3.02149,0 0,-24.37695 -3.59571,0 0,22.94141 0.57422,1.43554 m -5.57812,-12.97461 4.32031,9.81641 0,-8.70898 -4.32031,-9.4336 0,8.32617 m -0.41016,-13.27539 c 0.0274,-0.46484 0.0547,-0.86132 0.71094,-0.86132 1.17578,0 2.55664,1.01171 3.81445,1.01171 2.0918,0 2.21485,-2.55664 2.22852,-3.74609 l -2.00977,0 c -0.0137,0.42383 -0.082,0.69727 -0.57422,0.69727 -0.80664,0 -2.21484,-0.84766 -3.75976,-0.84766 -2.22851,0 -2.5293,1.9961 -2.5293,3.74609 l 2.11914,0" />
      <path
         inkscape:connector-curvature="0"
         id="path3026"
         style="font-size:28px;fill:none;stroke:#000000;stroke-opacity:1;stroke-width:0.35433071;stroke-miterlimit:4;stroke-dasharray:none"
         d="m 345.41992,331.25999 c -5.0039,0.16406 -6.57617,3.81446 -6.57617,8.38086 l 0,8.62695 c 0,4.4707 1.59961,8.10743 6.57617,8.25782 l 0,-3.36329 c -1.87304,-0.20507 -2.25586,-2.1875 -2.25586,-3.92382 l 0,-10.66407 c 0,-1.73632 0.39649,-3.73242 2.25586,-3.9375 l 0,-3.37695 m 0.6836,3.37695 c 1.87304,0.20508 2.26953,2.18751 2.26953,3.9375 l 0,10.66407 c 0,1.76367 -0.38282,3.71875 -2.26953,3.92382 l 0,3.36329 c 5.01757,-0.16407 6.60351,-3.88282 6.60351,-8.35352 l 0,-8.53125 c 0,-4.58007 -1.59961,-8.2168 -6.60351,-8.38086 l 0,3.37695" />
    </g>
  </g>
</svg>
