<?xml version="1.0" encoding="UTF-8" standalone="no"?>
<!-- Created with Inkscape (http://www.inkscape.org/) -->

<svg
   xmlns:dc="http://purl.org/dc/elements/1.1/"
   xmlns:cc="http://creativecommons.org/ns#"
   xmlns:rdf="http://www.w3.org/1999/02/22-rdf-syntax-ns#"
   xmlns:svg="http://www.w3.org/2000/svg"
   xmlns="http://www.w3.org/2000/svg"
   xmlns:sodipodi="http://sodipodi.sourceforge.net/DTD/sodipodi-0.dtd"
   xmlns:inkscape="http://www.inkscape.org/namespaces/inkscape"
   width="210mm"
   height="297mm"
   id="svg2"
   version="1.1"
   inkscape:version="0.48.2 r9819"
   sodipodi:docname="schildkroete.dxf">
  <defs
     id="defs4">
    <inkscape:path-effect
       effect="bend_path"
       id="path-effect3866"
       is_visible="true"
       bendpath="m 229.30282,471.78696 228.60585,0"
       prop_scale="1.14"
       scale_y_rel="false"
       vertical="false" />
  </defs>
  <sodipodi:namedview
     id="base"
     pagecolor="#ffffff"
     bordercolor="#666666"
     borderopacity="1.0"
     inkscape:pageopacity="0.0"
     inkscape:pageshadow="2"
     inkscape:zoom="0.71739197"
     inkscape:cx="51.719918"
     inkscape:cy="450.37388"
     inkscape:document-units="px"
     inkscape:current-layer="layer2"
     showgrid="false"
     inkscape:window-width="1280"
     inkscape:window-height="752"
     inkscape:window-x="0"
     inkscape:window-y="0"
     inkscape:window-maximized="1" />
  <metadata
     id="metadata7">
    <rdf:RDF>
      <cc:Work
         rdf:about="">
        <dc:format>image/svg+xml</dc:format>
        <dc:type
           rdf:resource="http://purl.org/dc/dcmitype/StillImage" />
        <dc:title></dc:title>
      </cc:Work>
    </rdf:RDF>
  </metadata>
  <g
     inkscape:groupmode="layer"
     id="layer2"
     inkscape:label="Schildkroete_ohne_Schwanz"
     style="display:inline">
    <path
       style="fill:none;stroke:#000000;stroke-width:0.35433075;stroke-linecap:round;stroke-linejoin:round;stroke-miterlimit:4;stroke-opacity:1;stroke-dashoffset:10.62992096"
       d="m 255.30075,597.46063 c -0.087,11.6582 -19.86897,6.09238 -13.16515,-3.81305 3.60553,-5.46065 13.28307,-2.9417 13.16515,3.81305 z m -35.79522,0 c -0.087,11.6582 -19.86896,6.09238 -13.16514,-3.81305 3.60552,-5.46065 13.28307,-2.9417 13.16514,3.81305 z m 9.84915,-32.44572 c -19.14484,-0.434 -32.06543,18.00392 -35.05164,35.18605 -2.94557,12.5464 -0.56698,27.31155 8.37431,36.75938 -11.91656,4.77733 -22.57879,12.52621 -31.03281,22.16664 -7.05185,-12.8336 -8.28895,-29.78765 -20.55067,-39.15799 -14.14197,-5.7558 -24.98582,13.66086 -18.61646,25.53673 4.89891,13.90405 14.32536,25.90165 25.20396,35.67578 -13.02804,30.95629 -9.44514,68.42469 8.63091,96.65869 -9.96952,10.91871 -23.54943,23.04692 -21.0832,39.38999 0.0164,12.77663 17.94954,18.25022 23.50418,6.07301 6.51423,-7.29223 7.15321,-24.76573 13.93798,-26.98064 22.96053,20.53548 58.7917,22.49319 84.77175,6.5465 6.70912,-3.87457 14.00231,-13.09485 15.63613,-0.61221 4.13792,9.75131 6.34511,22.7474 16.85679,27.70264 14.13392,3.23654 19.58484,-16.07507 14.23499,-26.38736 -2.79433,-11.0112 -16.24876,-18.41419 -18.64952,-27.40687 18.83371,-27.80247 18.49563,-64.84233 5.8108,-95.0318 12.8823,-11.74026 25.33653,-26.63087 27.39237,-44.53042 2.20144,-13.14473 -17.18248,-25.96111 -25.33131,-12.33563 -7.54048,10.51887 -9.71612,23.66533 -15.76802,34.93966 -8.10194,-9.37078 -18.40044,-16.83481 -29.86387,-21.54198 7.36177,-5.91713 9.39033,-17.97689 9.65681,-27.48516 0.17712,-19.04659 -10.16251,-41.42508 -30.85305,-44.59394 -2.37937,-0.41139 -4.7969,-0.58753 -7.21043,-0.57107 z m -0.48038,75.93352 c 12.25572,0.50752 31.82147,4.12485 36.95489,13.7665 -5.11787,8.85423 -10.23575,17.70846 -15.35362,26.56269 -14.41152,0 -28.82305,0 -43.23457,0 -4.93194,-9.41762 -9.86388,-18.83523 -14.79582,-28.25285 10.65553,-7.3467 23.40631,-12.01979 36.42912,-12.07634 z m 42.30582,15.24758 c 19.26265,15.09337 28.45529,39.85728 29.6557,63.74508 -8.39605,-0.0427 -16.79209,-0.0854 -25.18814,-0.12814 -6.98692,-12.01226 -13.97384,-24.02453 -20.96076,-36.03679 5.49773,-9.19338 10.99546,-18.38681 16.4932,-27.58015 z m -83.12246,0.0801 c 5.15079,9.58312 10.30157,19.16623 15.45236,28.74935 -6.1329,11.15806 -12.26581,22.31612 -18.39871,33.47418 -8.62556,-0.0961 -17.25113,-0.19219 -25.87669,-0.28829 0.13166,-23.52894 10.03682,-47.27181 28.82304,-61.93524 z m 20.73659,30.44708 c 13.76567,0 27.53134,0 41.29701,0 6.8001,11.69194 13.60021,23.38389 20.40031,35.07583 -6.79477,11.65457 -13.58953,23.30913 -20.3843,34.9637 -13.57886,0 -27.15771,0 -40.73657,0 -6.47984,-11.91083 -12.95969,-23.82166 -19.43953,-35.73249 6.28769,-11.43568 12.57539,-22.87136 18.86308,-34.30704 z m -49.51159,36.93372 c 8.6736,0.0961 17.34721,0.1922 26.02081,0.2883 6.69986,12.30524 13.39052,24.61575 20.09611,36.91771 -5.53509,9.471 -11.07019,18.94201 -16.60528,28.41301 -19.28951,-15.99962 -28.6523,-41.03066 -29.51164,-65.61902 z m 115.59642,1.45749 c 8.7163,0.0854 17.4326,0.17084 26.1489,0.25626 0.50397,24.30608 -10.78991,48.77414 -29.92793,63.84118 -5.61516,-9.58845 -11.23031,-19.17691 -16.84547,-28.76536 6.87483,-11.77736 13.74967,-23.55472 20.6245,-35.33208 z m -64.24337,37.09387 c 12.89031,0 25.78061,0 38.67092,0 5.7913,10.06895 11.58259,20.13789 17.37389,30.20684 -21.45128,14.98962 -52.36118,16.35142 -73.57877,0.20822 5.84462,-10.13833 11.68952,-20.27683 17.53396,-30.41506 z"
       id="path3849"
       inkscape:connector-curvature="0" />
  </g>
</svg>
