<?xml version="1.0" encoding="utf-8"?>
<!-- Generator: Adobe Illustrator 16.0.0, SVG Export Plug-In . SVG Version: 6.00 Build 0)  -->
<!DOCTYPE svg PUBLIC "-//W3C//DTD SVG 1.1//EN" "http://www.w3.org/Graphics/SVG/1.1/DTD/svg11.dtd">
<svg version="1.1" xmlns="http://www.w3.org/2000/svg" xmlns:xlink="http://www.w3.org/1999/xlink" x="0px" y="0px"
	 width="283.46px" height="283.46px" viewBox="0 0 283.46 283.46" enable-background="new 0 0 283.46 283.46" xml:space="preserve">
<g id="Ebene_1">
	<rect fill="#33A16A" width="283.46" height="283.46"/>
</g>
<g id="Ebene_2">
	<rect x="8.5" y="256" fill-rule="evenodd" clip-rule="evenodd" fill="none" width="136.939" height="19.5"/>
	<text transform="matrix(1 0 0 1 8.5 274.3994)" fill="#FFFFFF" font-family="'STXihei'" font-size="25">Planner</text>
	<g>
		<path fill-rule="evenodd" clip-rule="evenodd" fill="#FFFFFF" d="M55.494,211.761c0-41.821,0-83.643,0-125.464
			c0.114-0.304,0.265-0.6,0.335-0.914c1.828-8.089,6.644-13.779,14.714-15.443c5.859-1.208,12.048-0.825,18.339-1.165
			c0,3.866-0.024,7.23,0.009,10.593c0.02,1.913-0.126,3.877,0.253,5.726c1.354,6.593,7.622,11.313,13.848,10.631
			c7.311-0.801,12.289-6.171,12.369-13.399c0.042-3.775,0.008-7.551,0.009-11.327c0-0.594,0-1.187,0-1.788
			c17.923,0,35.586,0,53.398,0c0,4.501-0.052,8.887,0.012,13.271c0.107,7.402,5.943,13.243,13.193,13.288
			c7.107,0.044,12.951-5.564,13.218-12.84c0.144-3.94,0.049-7.889,0.062-11.833c0.002-0.603,0-1.205,0-1.946
			c4.99,0,9.78-0.269,14.53,0.054c11.063,0.752,18.853,9.298,18.854,20.363c0.006,39.787,0.01,79.573-0.004,119.36
			c-0.002,6.979-2.872,12.634-8.638,16.464c-2.545,1.69-5.715,2.439-8.601,3.615c-46.218,0-92.436,0-138.653,0
			c-0.254-0.104-0.499-0.26-0.764-0.307c-5.15-0.919-9.252-3.517-12.466-7.626C57.349,218.31,56.33,215.083,55.494,211.761z
			 M215.254,115.806c-0.918,0-1.584,0-2.249,0c-47.286,0-94.573,0-141.859,0c-2.263,0-2.265,0.001-2.265,2.28
			c0,29.814-0.001,59.629,0.003,89.444c0,0.731,0.012,1.467,0.086,2.193c0.272,2.659,1.673,4.559,4.177,5.406
			c1.242,0.421,2.651,0.472,3.985,0.473c37.818,0.023,75.635,0.019,113.453,0.019c5.749,0,11.497-0.012,17.246,0.006
			c1.912,0.005,3.688-0.328,5.182-1.634c1.92-1.68,2.255-3.886,2.253-6.279c-0.019-29.927-0.013-59.854-0.013-89.782
			C215.254,117.32,215.254,116.708,215.254,115.806z"/>
		<path fill-rule="evenodd" clip-rule="evenodd" fill="#FFFFFF" d="M103.854,55.861c3.944,1.69,5.176,4.795,5.048,8.908
			c-0.177,5.677-0.018,11.363-0.055,17.045c-0.025,3.973-2.187,6.669-5.692,7.243c-3.87,0.633-7.611-2.2-7.688-6.138
			c-0.135-6.917-0.114-13.84-0.007-20.759c0.05-3.255,2.237-5.076,5.012-6.299C101.599,55.861,102.726,55.861,103.854,55.861z"/>
		<path fill-rule="evenodd" clip-rule="evenodd" fill="#FFFFFF" d="M183.664,55.861c3.94,1.57,5.246,4.548,5.11,8.663
			c-0.198,6.014-0.017,12.039-0.071,18.058c-0.03,3.147-2.274,5.809-5.22,6.417c-3.151,0.65-6.322-0.841-7.502-3.746
			c-0.472-1.162-0.657-2.51-0.673-3.777c-0.07-5.569,0.102-11.144-0.074-16.708c-0.131-4.112,1.104-7.218,5.048-8.908
			C181.409,55.861,182.536,55.861,183.664,55.861z"/>
		<path fill-rule="evenodd" clip-rule="evenodd" fill="#FFFFFF" d="M141.919,202.38c-18.256,0-36.512,0-54.768-0.001
			c-4.139,0-5.028-0.902-5.028-5.096c-0.001-21.072-0.001-42.145,0-63.217c0-3.983,1.026-5.017,4.992-5.017
			c20.057-0.003,40.115-0.001,60.172-0.001c16.564,0,33.13-0.001,49.695,0.001c3.991,0,5.029,1.028,5.029,4.979
			c0.002,21.129,0.002,42.258,0,63.386c0,4.043-0.927,4.966-4.988,4.966C178.655,202.38,160.287,202.38,141.919,202.38z
			 M142.014,156.004c-8.855,0-17.554,0-26.354,0c0,6.527,0,12.966,0,19.479c8.818,0,17.558,0,26.354,0
			C142.014,168.969,142.014,162.567,142.014,156.004z M195.171,155.941c-6.647,0-13.1,0-19.575,0c0,6.613,0,13.107,0,19.593
			c6.595,0,13.048,0,19.575,0C195.171,168.97,195.171,162.515,195.171,155.941z M195.139,148.959c0-4.47,0-8.72,0-12.985
			c-6.6,0-13.083,0-19.568,0c0,4.405,0,8.656,0,12.985C182.137,148.959,188.587,148.959,195.139,148.959z M88.996,155.938
			c0,6.589,0,13.071,0,19.573c4.403,0,8.691,0,13.019,0c0-6.575,0-13.017,0-19.573C97.676,155.938,93.426,155.938,88.996,155.938z
			 M168.57,175.56c0-6.581,0-13.077,0-19.579c-4.425,0-8.722,0-12.991,0c0,6.611,0,13.063,0,19.579
			C159.963,175.56,164.222,175.56,168.57,175.56z M175.537,195.508c6.653,0,13.104,0,19.569,0c0-4.406,0-8.698,0-12.999
			c-6.596,0-13.046,0-19.569,0C175.537,186.881,175.537,191.139,175.537,195.508z M168.605,149.05c0-4.487,0-8.738,0-13.089
			c-6.624,0-13.163,0-19.807,0c0,1.882,0.06,3.627-0.021,5.365c-0.052,1.119,0.233,1.786,1.313,2.352
			c1.114,0.584,2.458,1.384,2.919,2.434c1.342,3.052,3.712,3.184,6.439,2.96c1.455-0.118,2.928-0.021,4.393-0.021
			C165.4,149.05,166.959,149.05,168.605,149.05z M108.674,135.925c-6.729,0-13.18,0-19.65,0c0,4.4,0,8.693,0,13.12
			c4.355,0,8.57,0.025,12.783-0.038c0.419-0.006,1.003-0.454,1.214-0.854c1.115-2.112,2.688-3.707,4.816-4.8
			c0.366-0.188,0.786-0.698,0.8-1.074C108.714,140.206,108.674,138.129,108.674,135.925z M168.586,182.402
			c-4.43,0-8.752-0.021-13.073,0.039c-0.354,0.005-0.83,0.497-1.031,0.878c-1.11,2.111-2.67,3.729-4.814,4.801
			c-0.347,0.174-0.81,0.577-0.819,0.888c-0.071,2.172-0.038,4.347-0.038,6.472c6.745,0,13.246,0,19.776,0
			C168.586,191.086,168.586,186.834,168.586,182.402z M108.674,195.564c0-2.222,0.052-4.294-0.045-6.358
			c-0.019-0.404-0.574-0.831-0.956-1.163c-1.176-1.025-2.89-1.777-3.483-3.058c-1.194-2.58-3.069-2.852-5.41-2.597
			c-0.445,0.048-0.9,0.007-1.351,0.007c-2.797,0-5.595,0-8.41,0c0,4.522,0,8.819,0,13.169
			C95.566,195.564,101.976,195.564,108.674,195.564z M115.534,142.315c8.929,0,17.689,0,26.452,0c0-2.185,0-4.249,0-6.382
			c-8.842,0-17.6,0-26.452,0C115.534,138.104,115.534,140.16,115.534,142.315z M142.008,189.224c-8.936,0-17.691,0-26.426,0
			c0,2.182,0,4.228,0,6.255c8.895,0,17.647,0,26.426,0C142.008,193.325,142.008,191.313,142.008,189.224z"/>
	</g>
</g>
</svg>
