<?xml version="1.0" encoding="utf-8"?>
<!-- Generator: Adobe Illustrator 16.0.0, SVG Export Plug-In . SVG Version: 6.00 Build 0)  -->
<!DOCTYPE svg PUBLIC "-//W3C//DTD SVG 1.1//EN" "http://www.w3.org/Graphics/SVG/1.1/DTD/svg11.dtd">
<svg version="1.1" xmlns="http://www.w3.org/2000/svg" xmlns:xlink="http://www.w3.org/1999/xlink" x="0px" y="0px"
	 width="283.46px" height="283.46px" viewBox="0 0 283.46 283.46" enable-background="new 0 0 283.46 283.46" xml:space="preserve">
<g id="Ebene_1">
	<rect fill="#33A16A" width="283.46" height="283.46"/>
</g>
<g id="Ebene_2">
	<path fill-rule="evenodd" clip-rule="evenodd" fill="#FFFFFF" d="M129.511,50.386c7.321,1.583,12.447,6.569,17.528,11.514
		c4.273,4.157,8.219,8.647,12.434,12.864c3.92,3.921,8.074,7.607,12.002,11.522c4.099,4.088,8.115,8.269,10.917,13.427
		c1.308,2.407,1.975,4.968,1.974,7.712c-0.004,15.821,0.008,31.643-0.032,47.464c-0.001,0.69-0.261,1.566-0.725,2.041
		c-4.126,4.231-8.324,8.395-12.503,12.572c-0.152,0.152-0.333,0.275-0.799,0.652c0-0.953,0-1.578,0-2.203
		c0-17.434-0.042-34.867,0.024-52.3c0.021-5.881-1.86-7.955-8.067-8.589c-2.782-0.285-5.606-0.2-8.411-0.212
		c-5.971-0.027-11.941,0.015-17.911-0.016c-5.571-0.03-7.927-2.425-7.972-7.988c-0.071-8.715-0.12-17.43-0.258-26.144
		c-0.021-1.347-0.34-2.728-0.746-4.021c-0.936-2.982-2.729-4.21-5.843-4.21c-13.792-0.001-27.583,0.008-41.375-0.006
		c-4.993-0.005-9.224,1.602-12.373,5.633c-2.154,2.759-2.955,5.952-2.956,9.367c-0.013,39.405-0.03,78.809,0.009,118.212
		c0.009,9.049,6.08,14.994,15.12,15.002c19.343,0.016,38.688,0.004,58.031,0.004c0.712,0,1.424,0,2.324,0
		c-1.285,4.723-2.529,9.291-3.805,13.975c-0.164,0.02-0.453,0.086-0.74,0.086c-19.403-0.014-38.809,0.123-58.209-0.105
		c-13.015-0.152-24.609-10.797-26.459-23.691c-0.066-0.461-0.238-0.906-0.36-1.359c0-42.039,0-84.079,0-126.119
		c0.108-0.267,0.268-0.524,0.318-0.802c2.184-12.211,9.312-19.96,21.162-23.434c1.181-0.347,2.399-0.567,3.601-0.845
		C93.443,50.386,111.478,50.386,129.511,50.386z"/>
	<path fill-rule="evenodd" clip-rule="evenodd" fill="#FFFFFF" d="M193.362,167.727c7.519,7.529,14.968,14.99,22.517,22.551
		c-0.374,0.393-0.849,0.908-1.345,1.406c-10.552,10.555-21.117,21.094-31.64,31.678c-1.171,1.178-2.424,1.957-4.03,2.432
		c-7.6,2.248-15.163,4.621-22.749,6.912c-0.838,0.252-1.76,0.416-2.623,0.357c-1.753-0.119-2.787-1.764-2.273-3.453
		c2.553-8.381,5.112-16.758,7.684-25.131c0.137-0.443,0.318-0.93,0.627-1.254c10.73-11.273,21.479-22.531,32.224-33.791
		C192.322,168.836,192.886,168.232,193.362,167.727z M175.909,219.715c-0.679-3.627-1.302-7.076-1.997-10.508
		c-0.069-0.346-0.523-0.801-0.871-0.877c-3.233-0.703-6.481-1.336-9.825-2.01c-1.363,4.553-2.703,8.922-3.967,13.314
		c-0.372,1.291,2.095,3.719,3.443,3.393C167.019,221.982,171.328,220.867,175.909,219.715z"/>
	<path fill-rule="evenodd" clip-rule="evenodd" fill="#FFFFFF" d="M222.662,181.463c-7.065-7.07-14.05-14.057-20.714-20.725
		c2.898-3.126,5.701-6.55,8.935-9.503c2.328-2.128,6.423-1.913,8.771,0.255c3.94,3.633,7.809,7.37,11.396,11.346
		c3.041,3.371,2.651,7.5-0.524,10.734C227.896,176.246,225.231,178.887,222.662,181.463z"/>
	<rect x="8.5" y="256" fill-rule="evenodd" clip-rule="evenodd" fill="none" width="136.939" height="19.5"/>
	<text transform="matrix(1 0 0 1 8.5 274.3994)" fill="#FFFFFF" font-family="'STXihei'" font-size="25">Projects</text>
</g>
</svg>
