<?xml version="1.0" encoding="utf-8"?>
<!-- Generator: Adobe Illustrator 16.0.0, SVG Export Plug-In . SVG Version: 6.00 Build 0)  -->
<!DOCTYPE svg PUBLIC "-//W3C//DTD SVG 1.1//EN" "http://www.w3.org/Graphics/SVG/1.1/DTD/svg11.dtd">
<svg version="1.1" xmlns="http://www.w3.org/2000/svg" xmlns:xlink="http://www.w3.org/1999/xlink" x="0px" y="0px"
	 width="283.46px" height="283.46px" viewBox="0 0 283.46 283.46" enable-background="new 0 0 283.46 283.46" xml:space="preserve">
<g id="Ebene_1">
	<rect fill="#33A16A" width="283.46" height="283.46"/>
</g>
<g id="Ebene_2">
	<rect x="8.5" y="256" fill-rule="evenodd" clip-rule="evenodd" fill="none" width="202.939" height="19.5"/>
	<text transform="matrix(1 0 0 1 8.5 274.3994)" fill="#FFFFFF" font-family="'STXihei'" font-size="25">Membercard</text>
	<g>
		<path fill-rule="evenodd" clip-rule="evenodd" fill="#FFFFFF" d="M228.979,229.346c-4.773,0-9.548,0-14.483,0
			c0-4.818,0-9.468,0-14.241c-2.432,0-4.701,0-7.115,0c0,4.695,0,9.352,0,14.122c-4.887,0-9.632,0-14.541,0c0-4.714,0-9.364,0-14.13
			c-4.801,0-9.44,0-14.239,0c0,4.698,0,9.351,0,14.124c-4.862,0-9.567,0-14.451,0c0-9.415,0-18.902,0-28.523
			c-4.863,0-9.553,0-14.41,0c0,4.678,0,9.328,0,14.13c-4.906,0-9.648,0-14.5,0c0-9.539,0-19.033,0-28.716c4.717,0,9.411,0,14.271,0
			c0-4.889,0-9.593,0-14.426c9.71,0,19.251,0,28.96,0c0,4.716,0,9.422,0,14.25c4.81,0,9.454,0,14.331,0c0-4.699,0-9.444,0-14.418
			c12.212,0,24.195,0,36.178,0c0,9.694,0,19.389,0,29.083c-4.751,0-9.503,0-14.241,0c0,4.839,0,9.469,0,14.203
			c4.83,0,9.536,0,14.241,0C228.979,219.651,228.979,224.498,228.979,229.346z M178.274,200.368c0-4.848,0-9.524,0-14.223
			c-4.786,0-9.431,0-14.113,0c0,4.782,0,9.475,0,14.223C168.881,200.368,173.486,200.368,178.274,200.368z M193.092,200.662
			c0,4.773,0,9.403,0,14.084c2.343,0,4.562,0,6.873,0c0-4.726,0-9.355,0-14.084C197.663,200.662,195.444,200.662,193.092,200.662z"
			/>
		<path fill-rule="evenodd" clip-rule="evenodd" fill="#FFFFFF" d="M120.762,56.199c0,21.568,0,43.136,0,64.93
			c-21.714,0-43.322,0-64.93,0c0-21.615,0-43.23,0-64.93C77.476,56.199,99.119,56.199,120.762,56.199z M70.455,70.761
			c0,12.036,0,23.892,0,35.746c11.975,0,23.832,0,35.686,0c0-11.976,0-23.833,0-35.746C94.205,70.761,82.388,70.761,70.455,70.761z"
			/>
		<path fill-rule="evenodd" clip-rule="evenodd" fill="#FFFFFF" d="M228.979,121.129c-21.567,0-43.136,0-64.93,0
			c0-21.714,0-43.322,0-64.93c21.644,0,43.287,0,64.93,0C228.979,77.842,228.979,99.486,228.979,121.129z M214.357,106.566
			c0-12.033,0-23.89,0-35.746c-11.975,0-23.831,0-35.688,0c0,11.975,0,23.831,0,35.746
			C190.604,106.566,202.421,106.566,214.357,106.566z"/>
		<path fill-rule="evenodd" clip-rule="evenodd" fill="#FFFFFF" d="M55.833,164.416c21.565,0,43.13,0,64.812,0
			c0,21.636,0,43.173,0,64.93c-21.602,0-43.207,0-64.812,0C55.833,207.702,55.833,186.059,55.833,164.416z M70.395,214.724
			c12.034,0,23.891,0,35.746,0c0-11.975,0-23.831,0-35.687c-11.975,0-23.832,0-35.746,0
			C70.395,190.972,70.395,202.789,70.395,214.724z"/>
		<path fill-rule="evenodd" clip-rule="evenodd" fill="#FFFFFF" d="M55.833,128.23c4.73,0,9.46,0,14.42,0c0,4.863,0,9.609,0,14.447
			c4.874,0,9.518,0,14.333,0c0-4.748,0-9.453,0-14.296c19.296,0,38.424,0,57.761,0c0,4.722,0,9.47,0,14.303c2.44,0,4.673,0,7.108,0
			c0-4.727,0-9.478,0-14.339c12.121,0,24.039,0,36.261,0c0,4.818,0,9.633,0,14.45c-4.721,0-9.441,0-14.399,0
			c0,4.867,0,9.617,0,14.438c-19.324,0-38.411,0-57.741,0c0-4.78,0-9.524,0-14.364c-4.896,0-9.55,0-14.412,0c0,4.72,0,9.469,0,14.31
			c-9.703,0-19.2,0-28.881,0c0-4.716,0-9.424,0-14.407c-4.936,0-9.693,0-14.45,0C55.833,137.925,55.833,133.078,55.833,128.23z"/>
		<path fill-rule="evenodd" clip-rule="evenodd" fill="#FFFFFF" d="M185.669,142.749c4.714,0,9.427,0,14.375,0
			c0-4.843,0-9.584,0-14.4c4.935,0,9.635,0,14.506,0c0,4.762,0,9.467,0,14.423c4.92,0,9.675,0,14.429,0c0,4.847,0,9.694,0,14.541
			c-13.672-0.012-27.345-0.024-41.017-0.037c-0.669-0.001-1.338-0.001-2.293-0.001C185.669,152.371,185.669,147.56,185.669,142.749z
			"/>
		<path fill-rule="evenodd" clip-rule="evenodd" fill="#FFFFFF" d="M149.846,56.199c-0.055,3.984-0.111,7.969-0.162,11.954
			c-0.01,0.776-0.001,1.552-0.001,2.438c-4.875,0-9.57,0-14.717,0c0-4.788,0-9.59,0-14.392
			C139.926,56.199,144.886,56.199,149.846,56.199z"/>
		<path fill-rule="evenodd" clip-rule="evenodd" fill="#FFFFFF" d="M135.246,85.037c4.81,0,9.473,0,14.286,0
			c0,9.621,0,19.2,0,28.866c-4.764,0-9.466,0-14.286,0C135.246,104.309,135.246,94.768,135.246,85.037z"/>
		<path fill-rule="evenodd" clip-rule="evenodd" fill="#FFFFFF" d="M77.551,99.362c0-7.188,0-14.262,0-21.427
			c7.146,0,14.22,0,21.43,0c0,7.077,0,14.191,0,21.427C91.918,99.362,84.805,99.362,77.551,99.362z"/>
		<path fill-rule="evenodd" clip-rule="evenodd" fill="#FFFFFF" d="M207.212,99.41c-7.188,0-14.262,0-21.427,0
			c0-7.146,0-14.22,0-21.43c7.078,0,14.191,0,21.427,0C207.212,85.043,207.212,92.157,207.212,99.41z"/>
		<path fill-rule="evenodd" clip-rule="evenodd" fill="#FFFFFF" d="M98.998,207.625c-7.196,0-14.27,0-21.432,0
			c0-7.149,0-14.223,0-21.431c7.085,0,14.199,0,21.432,0C98.998,193.265,98.998,200.378,98.998,207.625z"/>
	</g>
</g>
</svg>
