<?xml version="1.0" encoding="utf-8"?>
<!-- Generator: Adobe Illustrator 16.0.0, SVG Export Plug-In . SVG Version: 6.00 Build 0)  -->
<!DOCTYPE svg PUBLIC "-//W3C//DTD SVG 1.1//EN" "http://www.w3.org/Graphics/SVG/1.1/DTD/svg11.dtd">
<svg version="1.1" xmlns="http://www.w3.org/2000/svg" xmlns:xlink="http://www.w3.org/1999/xlink" x="0px" y="0px"
	 width="283.46px" height="283.46px" viewBox="0 0 283.46 283.46" enable-background="new 0 0 283.46 283.46" xml:space="preserve">
<g id="Ebene_1">
	<rect fill="#33A16A" width="283.46" height="283.46"/>
</g>
<g id="Ebene_2">
	<g>
		<path fill-rule="evenodd" clip-rule="evenodd" fill="#FFFFFF" d="M228.504,235.827c-57.604,0-115.21,0-172.815,0
			c-0.054-0.846-0.154-1.692-0.154-2.538c-0.008-43.657-0.007-87.313-0.007-130.971c0-10.426,0.031-20.853-0.009-31.279
			c-0.031-7.935,2.889-14.463,9.54-18.859c2.658-1.757,5.939-2.571,8.937-3.814c45.401,0,90.802,0,136.202,0
			c1.145,0.342,2.298,0.656,3.431,1.03c9.52,3.149,15.031,11.195,15.033,22.009c0.008,54.144,0.004,108.289-0.003,162.432
			C228.658,234.501,228.558,235.164,228.504,235.827z M127.66,221.222c0-12.013,0-23.916,0-35.786c9.772,0,19.259,0,28.968,0
			c0,11.982,0,23.847,0,35.772c19.282,0,38.342,0,57.577,0c0-0.781,0-1.438,0-2.097c0-49.243,0.001-98.486-0.002-147.729
			c0-5.776-2.731-8.519-8.517-8.52c-42.409-0.005-84.818-0.006-127.228,0.001c-5.749,0-8.47,2.767-8.47,8.566
			c-0.002,49.243-0.001,98.487-0.001,147.73c0,0.654,0,1.31,0,2.063C89.253,221.222,108.314,221.222,127.66,221.222z"/>
		<path fill-rule="evenodd" clip-rule="evenodd" fill="#FFFFFF" d="M156.463,98.83c-9.644,0-19.087,0-28.696,0
			c0-7.136,0-14.226,0-21.476c9.513,0,19.041,0,28.696,0C156.463,84.462,156.463,91.562,156.463,98.83z"/>
		<path fill-rule="evenodd" clip-rule="evenodd" fill="#FFFFFF" d="M127.716,134.775c0-7.167,0-14.275,0-21.483
			c9.598,0,19.092,0,28.729,0c0,7.115,0,14.219,0,21.483C146.891,134.775,137.36,134.775,127.716,134.775z"/>
		<path fill-rule="evenodd" clip-rule="evenodd" fill="#FFFFFF" d="M156.462,149.359c0,7.204,0,14.308,0,21.526
			c-9.56,0-19.048,0-28.698,0c0-7.133,0-14.278,0-21.526C137.35,149.359,146.842,149.359,156.462,149.359z"/>
		<path fill-rule="evenodd" clip-rule="evenodd" fill="#FFFFFF" d="M113.145,98.826c-9.628,0-19.067,0-28.665,0
			c0-7.131,0-14.22,0-21.47c9.5,0,19.021,0,28.665,0C113.145,84.465,113.145,91.561,113.145,98.826z"/>
		<path fill-rule="evenodd" clip-rule="evenodd" fill="#FFFFFF" d="M171.017,98.733c0-7.195,0-14.248,0-21.412
			c9.614,0,19.139,0,28.759,0c0,7.172,0,14.219,0,21.412C190.213,98.733,180.689,98.733,171.017,98.733z"/>
		<path fill-rule="evenodd" clip-rule="evenodd" fill="#FFFFFF" d="M84.321,113.281c9.738,0,19.226,0,28.829,0
			c0,7.189,0,14.289,0,21.537c-0.637,0.041-1.224,0.111-1.812,0.111c-8.356,0.007-16.714-0.026-25.07,0.034
			c-1.467,0.01-2.004-0.333-1.983-1.911C84.372,126.535,84.321,120.015,84.321,113.281z"/>
		<path fill-rule="evenodd" clip-rule="evenodd" fill="#FFFFFF" d="M171.043,134.79c0-7.219,0-14.32,0-21.509
			c9.603,0,19.09,0,28.828,0c0,0.905,0,1.737,0,2.569c0,5.795-0.014,11.59,0.013,17.385c0.005,1.025-0.042,1.728-1.409,1.72
			c-8.905-0.051-17.811-0.033-26.717-0.043C171.579,134.912,171.401,134.853,171.043,134.79z"/>
		<path fill-rule="evenodd" clip-rule="evenodd" fill="#FFFFFF" d="M84.489,149.37c9.553,0,19.039,0,28.652,0
			c0,7.17,0,14.275,0,21.506c-9.507,0-18.996,0-28.652,0C84.489,163.765,84.489,156.623,84.489,149.37z"/>
		<path fill-rule="evenodd" clip-rule="evenodd" fill="#FFFFFF" d="M199.871,170.912c-9.737,0-19.225,0-28.828,0
			c0-7.189,0-14.289,0-21.537c0.637-0.041,1.224-0.11,1.811-0.111c8.357-0.007,16.715,0.026,25.071-0.034
			c1.466-0.011,2.004,0.332,1.983,1.91C199.82,157.657,199.871,164.177,199.871,170.912z"/>
		<path fill-rule="evenodd" clip-rule="evenodd" fill="#FFFFFF" d="M84.447,185.365c9.627,0,19.066,0,28.662,0
			c0,7.141,0,14.232,0,21.479c-9.479,0-19.007,0-28.662,0C84.447,199.731,84.447,192.637,84.447,185.365z"/>
		<path fill-rule="evenodd" clip-rule="evenodd" fill="#FFFFFF" d="M199.774,185.425c0,7.16,0,14.206,0,21.412
			c-9.563,0-19.084,0-28.727,0c0-7.11,0-14.205,0-21.412C180.582,185.425,190.067,185.425,199.774,185.425z"/>
	</g>
	<rect x="8.5" y="256" fill-rule="evenodd" clip-rule="evenodd" fill="none" width="136.939" height="19.5"/>
	<text transform="matrix(1 0 0 1 8.5 274.3994)" fill="#FFFFFF" font-family="'STXihei'" font-size="25">FabLabs</text>
</g>
</svg>
