<?xml version="1.0" encoding="utf-8"?>
<!-- Generator: Adobe Illustrator 16.0.0, SVG Export Plug-In . SVG Version: 6.00 Build 0)  -->
<!DOCTYPE svg PUBLIC "-//W3C//DTD SVG 1.1//EN" "http://www.w3.org/Graphics/SVG/1.1/DTD/svg11.dtd">
<svg version="1.1" xmlns="http://www.w3.org/2000/svg" xmlns:xlink="http://www.w3.org/1999/xlink" x="0px" y="0px"
	 width="283.46px" height="283.46px" viewBox="0 0 283.46 283.46" enable-background="new 0 0 283.46 283.46" xml:space="preserve">
<g id="Ebene_1">
	<rect fill="#33A16A" width="283.46" height="283.46"/>
</g>
<g id="Ebene_2">
	<rect x="8.5" y="256" fill-rule="evenodd" clip-rule="evenodd" fill="none" width="202.939" height="19.5"/>
	<g>
		<path fill-rule="evenodd" clip-rule="evenodd" fill="#FFFFFF" d="M200.258,25.907c4.607,1.154,9.068,2.606,12.839,5.688
			c6.506,5.315,10.108,12.127,10.186,20.524c0.138,14.929,0.043,29.86,0.045,44.79c0,0.491,0,0.982,0,1.991
			c-4.713-4.069-8.827-8.059-13.398-11.431c-3.669-2.707-4.895-5.789-4.678-10.28c0.379-7.824,0.129-15.679,0.099-23.521
			c-0.025-6.409-3.339-9.831-9.712-9.835c-40.944-0.029-81.889-0.028-122.834,0c-6.383,0.003-9.746,3.418-9.747,9.798
			c-0.015,58.74-0.015,117.479,0,176.221c0.001,6.369,3.374,9.773,9.769,9.777c40.944,0.025,81.89,0.027,122.834-0.003
			c6.35-0.006,9.669-3.448,9.689-9.855c0.027-9.275-0.022-18.55,0.054-27.824c0.007-0.929,0.399-2.144,1.055-2.73
			c5.228-4.671,10.562-9.221,15.868-13.804c0.207-0.178,0.45-0.313,1.001-0.689c0,1.067,0,1.787,0,2.506
			c0,14.102-0.222,28.206,0.061,42.301c0.303,15.134-10.753,26.113-22.557,27.691c-0.202,0.028-0.383,0.218-0.573,0.332
			c-44.036,0-88.074,0-132.111,0c-0.414-0.149-0.816-0.362-1.242-0.438c-12.308-2.166-21.789-13.202-21.798-25.749
			c-0.047-59.757-0.056-119.514,0.019-179.271c0.01-8.39,3.689-15.198,10.19-20.505c3.77-3.077,8.226-4.532,12.832-5.683
			C112.184,25.907,156.222,25.907,200.258,25.907z"/>
		<path fill-rule="evenodd" clip-rule="evenodd" fill="#FFFFFF" d="M172.738,168.529c-5.194,0-10.016,0-14.836,0
			c-12.668,0-25.335,0.02-38.001-0.01c-5.9-0.015-9.554-3.696-9.569-9.62c-0.027-11.31-0.021-22.621-0.003-33.931
			c0.008-6.231,3.59-9.861,9.778-9.868c16.512-0.022,33.026-0.008,49.538-0.009c0.902,0,1.805,0,3.094,0c0-0.864,0-1.651,0-2.438
			c0-6.409-0.034-12.818,0.023-19.227c0.016-1.723,0.134-3.483,0.507-5.159c1.053-4.698,6.222-6.358,9.813-3.246
			c21.245,18.42,42.495,36.835,63.74,55.254c0.508,0.439,0.985,0.91,1.666,1.542c-1.459,1.293-2.833,2.537-4.233,3.749
			c-20.449,17.729-40.897,35.458-61.353,53.177c-2.733,2.369-7.389,1.344-8.878-2.185c-0.797-1.884-1.179-4.062-1.229-6.12
			c-0.153-6.405-0.058-12.816-0.058-19.226C172.738,170.402,172.738,169.591,172.738,168.529z"/>
	</g>
</g>
</svg>
