<?xml version="1.0" encoding="utf-8"?>
<!-- Generator: Adobe Illustrator 16.0.0, SVG Export Plug-In . SVG Version: 6.00 Build 0)  -->
<!DOCTYPE svg PUBLIC "-//W3C//DTD SVG 1.1//EN" "http://www.w3.org/Graphics/SVG/1.1/DTD/svg11.dtd">
<svg version="1.1" id="Ebene_1" xmlns="http://www.w3.org/2000/svg" xmlns:xlink="http://www.w3.org/1999/xlink" x="0px" y="0px"
	 width="283.46px" height="82px" viewBox="0 0 283.46 82" enable-background="new 0 0 283.46 82" xml:space="preserve">
<g>
	<g>
		<polygon fill="#FDFDFD" points="31.97,73.164 31.942,73.166 31.97,73.164 		"/>
		<polygon fill="#FDFDFD" points="31.986,73.158 32.067,73.148 31.969,73.154 31.97,73.159 31.976,73.159 		"/>
		<polygon fill="#FDFDFD" points="32.055,73.17 32.749,73.107 32.749,73.113 32.053,73.17 		"/>
		<polygon fill="#FDFDFD" points="31.38,74 31.371,74 31.178,73.601 31.056,73.405 31.093,73.301 31.034,73.253 31.012,73.229 
			31.093,73.211 30.978,73.213 30.89,73.218 30.75,73.224 30.638,73.617 30.432,74 30.43,74 29.064,73.711 29.118,73.519 
			29.427,73.41 29.418,73.363 27.663,73.789 29.434,74 29.445,74 30.464,73.594 30.485,73.421 30.682,73.322 30.661,73.28 
			30.93,73.238 31,73.215 31,73.213 30.959,74 30.961,74 31.382,74 		"/>
		<polygon fill="#FDFDFD" points="29.902,73.351 28.445,73.47 28.897,73.5 28.902,73.5 		"/>
		<polygon fill="#FDFDFD" points="30.629,73.195 30.485,73.21 30.558,73.206 30.676,73.192 		"/>
		<polygon fill="#FDFDFD" points="28.897,73.635 28.278,74 28.304,74 28.356,74.082 30.206,74 30.466,74 28.718,73.877 		"/>
		<polygon fill="#FDFDFD" points="31.268,73.213 31.464,73.5 31.447,73.5 31.536,73.344 31.856,73.245 31.689,73.214 31.507,73.351 
			31.122,73.5 31.12,73.5 30.546,73.189 30.546,73.198 30.979,73.348 31.304,73.5 31.347,73.5 30.946,73.36 30.546,73.217 
			30.546,73.219 30.95,73.338 31.04,73.5 30.883,73.5 30.883,73.5 30.879,73.5 30.16,73.415 29.983,73.358 29.999,73.324 
			30.746,73.269 31.268,73.219 		"/>
		<polygon fill="#FDFDFD" points="30.862,73.209 30.839,73.211 30.813,73.214 30.964,73.206 31.034,73.202 31.056,73.199 		"/>
		<polygon fill="#FDFDFD" points="32.738,73.171 32.764,73.17 32.739,73.17 		"/>
		<polygon fill="#FDFDFD" points="31.974,73.17 31.976,73.17 31.977,73.17 32.787,73.1 32.792,73.083 31.969,73.152 		"/>
		<polygon fill="#FDFDFD" points="32.832,73.113 32.835,73.109 32.836,73.108 32.838,73.106 32.835,73.106 		"/>
		<path fill="#FDFDFD" d="M30.555,70c-0.338-0.433-0.914-0.689-1.569-0.639c-0.529,0.041-1.009,0.274-1.356,0.619
			c-0.343,0.34-0.556,0.788-0.556,1.264c0,0.477,0.213,0.889,0.556,1.173c0.006,0.004,0.013,0.008,0.019,0.014
			c0.345,0.276,0.817,0.426,1.337,0.38c0.655-0.057,1.231-0.409,1.569-0.897c0.201-0.289,0.403-0.622,0.405-0.974
			c0-0.002,0.041-0.003,0.041-0.005c0-0.001,0-0.001,0-0.001s0-0.001,0-0.003c0-0.027-0.069-0.052-0.072-0.08l2.656-0.159
			c0,0.007-0.009,0.173-0.009,0.184l0,0c0-0.012-0.087,0.123-0.087,0.123H33c0,0,0-0.399,0-0.404l-2.417,0.208
			C30.564,70.486,30.739,70.236,30.555,70z M30.875,70.931c0,0.001,0,0.002,0,0.003c0-0.03-0.008-0.054-0.01-0.084h0.001
			C30.868,70.877,30.875,70.904,30.875,70.931z"/>
		<path fill="#FDFDFD" d="M32.323,73.14l-0.023,0.001l-0.188,0.017l0.652-0.028l-0.867,0.049l0.324-0.013l0.103-0.007l0.443-0.024
			c0.001-0.001,0.003-0.004,0.004-0.006c0.003-0.005,0.008-0.01,0.011-0.015L32.323,73.14z"/>
		<polygon fill="#FDFDFD" points="32.802,73.17 32.801,73.17 32.802,73.17 		"/>
		<path fill="#FDFDFD" d="M57,65.506V46.162c0-0.333-1.735-1.185-2.179-2.288l-21.27-1.164C33.254,44.163,32,45.331,31,45.809
			v21.212c2,0.459,2.765,1.879,2.787,3.654L54.46,69.36C54.526,67.579,56,66.005,57,65.506z"/>
		<polygon fill="#FDFDFD" points="32.797,73.155 32.797,73.156 32.798,73.146 		"/>
		<rect x="32.798" y="73.165" fill="#FDFDFD" width="0.002" height="0"/>
		<rect x="32.829" y="73.106" fill="#FDFDFD" width="0" height="0.014"/>
		<path fill="#FDFDFD" d="M33.045,72.706c0.008-0.015,0.015-0.03,0.023-0.045c0.009-0.017,0.016-0.035,0.024-0.051
			c0.164-0.366,0.274-0.736,0.333-1.117c0.014-0.101,0.027-0.203,0.034-0.304c-0.008,0.101-0.02,0.201-0.036,0.301
			c-0.003,0.023-0.009,0.046-0.013,0.07c-0.068,0.394-0.191,0.778-0.37,1.154C33.042,72.711,33.044,72.708,33.045,72.706z"/>
		<polygon fill="#FDFDFD" points="27.658,72.861 30.555,72.841 27.658,72.861 		"/>
		<path fill="#FDFDFD" d="M27.802,12.668c0.328,0.291,0.734,0.505,1.181,0.581c0.45,0.076,0.856-0.003,1.18-0.187
			c0.15-0.084,0.286-0.186,0.393-0.313c0.202-0.241,0.32-0.552,0.32-0.909c0-0.434-0.18-0.859-0.469-1.216
			c-0.346-0.428-0.851-0.756-1.423-0.861c-1.058-0.194-1.922,0.434-1.922,1.404c0,0.487,0.218,0.965,0.569,1.342
			c0.028,0.03,0.061,0.056,0.091,0.084C27.747,12.619,27.774,12.644,27.802,12.668z"/>
		<path fill="#FDFDFD" d="M57.614,17.539c0.042,0.048,0.089,0.091,0.136,0.134c0.25,0.231,0.558,0.393,0.896,0.434
			c0.294,0.036,0.567-0.023,0.796-0.151c0.142-0.078,0.263-0.186,0.365-0.313c0.192-0.238,0.312-0.547,0.312-0.904
			c0-0.309-0.088-0.607-0.237-0.868C59.62,15.41,59.166,15.067,58.646,15c-0.471-0.062-0.887,0.12-1.159,0.445
			c-0.201,0.24-0.326,0.556-0.326,0.921C57.161,16.805,57.335,17.222,57.614,17.539z"/>
		<path fill="#FDFDFD" d="M81.35,21.617c0.01,0.008,0.021,0.016,0.032,0.024c0.173,0.124,0.365,0.213,0.571,0.245
			c0.208,0.031,0.398,0,0.57-0.073c0.11-0.046,0.212-0.107,0.301-0.188c0.233-0.217,0.379-0.546,0.379-0.936
			c0-0.256-0.066-0.503-0.176-0.727c-0.216-0.445-0.613-0.789-1.075-0.863c-0.46-0.075-0.859,0.137-1.081,0.509
			c-0.114,0.191-0.183,0.423-0.183,0.686C80.689,20.824,80.959,21.32,81.35,21.617z"/>
		<path fill="#FDFDFD" d="M57,38.76V20.045c0-0.505-1.81-1.565-2.203-2.814l-21.454-3.647C32.879,14.673,31,15.461,31,15.736v22.133
			c0,0.443,1.853,1.273,2.36,2.297l21.367,1.414C55.02,40.17,57,39.083,57,38.76z"/>
		<path fill="#FDFDFD" d="M58.605,40.977c-0.382-0.014-0.727,0.123-0.992,0.352c-0.131,0.113-0.24,0.25-0.323,0.405
			c-0.112,0.208-0.183,0.446-0.183,0.704c0,0.45,0.198,0.855,0.505,1.141c0.265,0.247,0.61,0.405,0.992,0.416
			c0.498,0.013,0.934-0.225,1.202-0.597c0.173-0.242,0.278-0.538,0.278-0.864c0-0.222-0.051-0.434-0.137-0.627
			c-0.04-0.089-0.087-0.174-0.142-0.253C59.54,41.263,59.103,40.996,58.605,40.977z"/>
		<path fill="#FDFDFD" d="M32.794,73.16c0.001,0.003,0.001,0.003,0.002,0.005c0-0.006,0-0.029,0.001-0.03l0,0l0,0l-0.001-0.002
			c0,0.008-0.001,0.015-0.002,0.022l0.001,0.001C32.795,73.158,32.794,73.158,32.794,73.16z"/>
		<polygon fill="#FDFDFD" points="82.546,69.49 82.546,69.493 82.056,69.538 81.309,69.601 82.021,69.538 82.546,69.493 
			82.546,69.49 82.918,69.461 		"/>
		<path fill="#FDFDFD" d="M81,40.52V23.733c-1-0.357-1.697-1.314-2.048-2.485l-17.45-2.864C61.121,19.361,61,20.061,59,20.284
			v18.642c2,0.511,2.622,1.708,2.816,3.127l16.938,1.098C78.971,41.818,80,40.79,81,40.52z"/>
		<path fill="#FDFDFD" d="M30.555,41.013c-0.166-0.261-0.402-0.479-0.688-0.635c-0.268-0.146-0.572-0.241-0.901-0.254
			c-0.523-0.02-0.996,0.158-1.336,0.458c-0.329,0.291-0.533,0.697-0.533,1.154s0.205,0.877,0.533,1.19
			c0.34,0.324,0.813,0.534,1.336,0.549c0.682,0.02,1.269-0.297,1.589-0.782c0.03-0.043,0.059-0.089,0.083-0.136
			c0.11-0.211,0.176-0.444,0.176-0.695C30.814,41.555,30.715,41.267,30.555,41.013z"/>
		<path fill="#FDFDFD" d="M57.614,70.481c0.234,0.138,0.513,0.208,0.814,0.186c0.634-0.049,1.169-0.494,1.38-1.076
			c0.061-0.168,0.098-0.347,0.098-0.533c0-0.008-0.002-0.016-0.002-0.024c-0.003-0.176-0.038-0.341-0.096-0.495
			c-0.21-0.551-0.746-0.919-1.38-0.876c-0.301,0.021-0.58,0.131-0.814,0.302c-0.393,0.287-0.654,0.747-0.671,1.253
			c-0.001,0.019-0.005,0.035-0.005,0.053C56.937,69.801,57.207,70.244,57.614,70.481z"/>
		<path fill="#FDFDFD" d="M78.685,67.853C78.753,66.229,80,64.839,81,64.482V47.188c-1-0.271-1.474-1.025-1.845-2.012l-17.763-0.939
			C60.974,45.123,61,45.806,59,46.122v19.399c2,0.452,2.659,1.712,2.659,3.276c0,0.035,0.102,0.068,0.101,0.103L78.685,67.853z"/>
		<polygon fill="#FDFDFD" points="30.97,73.344 31.097,73.5 31.096,73.5 31.101,73.5 31.102,73.5 31.103,73.5 31.113,73.5 
			31.114,73.5 31.152,73.334 32.792,73.143 32.798,73.101 32.208,73.114 30.939,73.27 		"/>
		<path fill="#FDFDFD" d="M33.191,72.17c0.175-0.457,0.179-0.939,0.179-1.433c0,0,0,0,0-0.001c0,0.492-0.052,0.971-0.225,1.425
			C33.144,72.165,33.192,72.167,33.191,72.17z"/>
		<rect x="32.833" y="73.106" fill="#FDFDFD" width="0" height="0.009"/>
		<polygon fill="#FDFDFD" points="30.856,73.173 30.868,73.171 30.855,73.173 30.854,73.173 		"/>
		<path fill="#FDFDFD" d="M82.082,42.42c-0.261-0.005-0.501,0.085-0.7,0.243c-0.188,0.148-0.339,0.357-0.43,0.605
			c-0.062,0.168-0.096,0.354-0.096,0.55c0,0.485,0.208,0.914,0.525,1.177c0.199,0.165,0.439,0.266,0.7,0.27
			c0.266,0.005,0.51-0.093,0.71-0.258c0.184-0.151,0.331-0.36,0.418-0.605c0.058-0.165,0.091-0.345,0.091-0.535
			s-0.033-0.371-0.091-0.538C83.028,42.808,82.592,42.432,82.082,42.42z"/>
		<line fill="#FDFDFD" x1="27.645" y1="72.735" x2="27.645" y2="72.735"/>
		<polyline fill="#FDFDFD" points="32.208,73.095 32.64,73.066 30.678,73.17 29.42,73.238 29.418,73.244 28.851,73.264 		"/>
		<path fill="#FDFDFD" d="M30.885,73.176"/>
		<path fill="#FDFDFD" d="M30.883,73.176"/>
		<path fill="#FDFDFD" d="M30.727,73.176"/>
		<path fill="#FDFDFD" d="M81.917,66.475c-0.193,0.022-0.373,0.099-0.535,0.21c-0.333,0.228-0.579,0.614-0.646,1.052
			c-0.012,0.079-0.021,0.159-0.021,0.241c0,0.535,0.274,0.958,0.667,1.134c0.162,0.072,0.342,0.106,0.535,0.082
			c0.365-0.045,0.687-0.273,0.904-0.593c0.177-0.258,0.288-0.573,0.288-0.908C83.108,66.945,82.576,66.401,81.917,66.475z"/>
		<g>
			<g>
				<path fill="#32A26A" d="M32.795,73.154c0.015,0,0.074-0.028,0.088-0.052l22.342-1.615c-0.068-0.645-0.591-1.545-0.588-1.976
					c0-0.148-0.267-0.1-0.264-0.149L33,70.596C33,70.601,33,71,33,71h0.499c0,0,0.033-0.135,0.034-0.123l0,0
					c0-0.011,0.015-0.1,0.015-0.106l-2.695,0.082c0.003,0.028-0.002,0.15-0.002,0.178c0,0.001,0,0,0,0c0,0.001,0,0,0,0
					c0,0.002,0.022-0.083,0.022-0.082c-0.074,0.416-0.166,0.684-0.367,0.973c-0.338,0.488-0.889,0.837-1.544,0.894
					c-0.52,0.046-0.979-0.105-1.325-0.382c-0.006-0.005-0.006-0.011-0.013-0.015c-0.343-0.284-0.552-0.697-0.552-1.173
					c0-0.476,0.214-0.925,0.557-1.265c0.347-0.344,0.828-0.578,1.356-0.619c0.655-0.051,1.231,0.206,1.57,0.639
					c0.185,0.235,0.292,0.524,0.31,0.842l2.922-0.168C33.765,68.9,33,67.479,31,67.021V45.809c1-0.478,2.407-1.646,2.705-3.099
					l21.228,1.164C55.377,44.977,57,45.829,57,46.162v19.345c-1,0.499-2.585,2.073-2.652,3.854c-0.002,0.05,0.096,0.118,0.096,0.168
					c0,0.75,0.341,1.407,0.706,1.958c0.665,1.007,1.875,1.602,3.205,1.46c1.241-0.133,2.35-0.876,3.013-1.905l17.926-1.295
					c0.532,0.956,1.502,1.547,2.603,1.458c1.652-0.136,2.879-1.756,2.879-3.621c0-1.333-0.776-2.439-1.776-2.926V47.06
					c2-0.493,1.797-1.689,1.797-3.098c0-1.408,0.203-2.649-1.797-3.206v-17.07c1-0.424,1.78-1.501,1.78-2.846
					c0-1.861-1.252-3.554-2.876-3.783c-1.403-0.198-2.561,0.76-2.877,2.227l-16.873-3.006c-0.342-1.761-1.785-3.277-3.541-3.563
					c-1.715-0.279-3.166,0.707-3.586,2.292l-21.593-3.844c-0.482-1.937-2.315-3.591-4.529-3.909
					c-2.614-0.376-4.569,1.25-4.569,3.637c0,1.981,0.664,3.833,3.664,4.591v22.146c-3,0.42-3.474,2.012-3.474,3.992
					C24.526,43.6,25,45.294,28,45.85V67.14c-3,0.662-3.613,2.415-3.613,4.373c0,2.383,2.063,4.099,4.674,3.834
					c1.569-0.159,2.893-1.015,3.721-2.172 M32.835,73.127l-0.004,0.03 M31.11,73.17h-0.002h-0.002h0.002H31.11z M32.832,73.106
					L32.832,73.106c-0.002,0.004-0.004,0.008-0.006,0.012h0C32.828,73.114,32.83,73.111,32.832,73.106z M32.797,73.155l0-0.009
					C32.798,73.146,32.798,73.151,32.797,73.155L32.797,73.155z M32.738,73.171C32.738,73.171,32.739,73.171,32.738,73.171
					 M32.795,73.155l-0.001-0.001c0.001-0.007,0,0.007,0,0l0.003-0.02l0,0l0,0 M32.831,73.114L32.831,73.114
					c0.001-0.003,0.002-0.006,0.004-0.008l0,0C32.833,73.108,32.832,73.111,32.831,73.114z M81.917,69.193
					c-0.193,0.025-0.373-0.01-0.535-0.082c-0.394-0.176-0.667-0.6-0.667-1.134c0-0.082,0.009-0.162,0.021-0.241
					c0.067-0.438,0.313-0.824,0.646-1.052c0.162-0.111,0.342-0.188,0.535-0.21c0.66-0.073,1.192,0.47,1.192,1.218
					c0,0.334-0.11,0.65-0.288,0.908C82.603,68.92,82.281,69.148,81.917,69.193z M83.301,43.868c0,0.19-0.033,0.37-0.091,0.535
					c-0.087,0.246-0.234,0.454-0.418,0.605c-0.2,0.165-0.444,0.263-0.71,0.258c-0.261-0.004-0.501-0.105-0.7-0.27
					c-0.317-0.263-0.525-0.692-0.525-1.177c0-0.196,0.034-0.381,0.096-0.55c0.09-0.248,0.241-0.457,0.43-0.605
					c0.199-0.158,0.439-0.248,0.7-0.243c0.51,0.012,0.947,0.388,1.128,0.91C83.268,43.497,83.301,43.678,83.301,43.868z
					 M61.816,42.053C61.622,40.633,61,39.437,59,38.926V20.284c2-0.224,2.217-0.923,2.598-1.9l17.153,2.864
					C79.102,22.419,80,23.376,81,23.733V40.52c-1,0.27-2.029,1.298-2.246,2.632L61.816,42.053z M60.086,42.533
					c0,0.326-0.105,0.622-0.278,0.864c-0.268,0.373-0.705,0.61-1.202,0.597c-0.382-0.01-0.727-0.169-0.992-0.416
					c-0.308-0.286-0.505-0.691-0.505-1.141c0-0.258,0.07-0.496,0.183-0.704c0.083-0.155,0.191-0.292,0.323-0.405
					c0.265-0.229,0.61-0.366,0.992-0.352c0.498,0.019,0.934,0.286,1.202,0.675c0.055,0.08,0.102,0.165,0.142,0.253
					C60.035,42.099,60.086,42.311,60.086,42.533z M31,37.869V15.736c0-0.275,2.033-1.063,2.497-2.152l21.412,3.647
					C55.302,18.48,57,19.54,57,20.045V38.76c0,0.323-2.091,1.41-2.384,2.82l-21.41-1.414C32.699,39.142,31,38.312,31,37.869z
					 M81.953,19.099c0.461,0.075,0.858,0.418,1.075,0.863c0.109,0.223,0.176,0.471,0.176,0.727c0,0.39-0.146,0.719-0.379,0.936
					c-0.088,0.082-0.19,0.143-0.301,0.188c-0.172,0.072-0.363,0.104-0.57,0.073c-0.207-0.031-0.398-0.121-0.571-0.245
					c-0.011-0.008-0.021-0.016-0.032-0.024c-0.391-0.297-0.66-0.793-0.66-1.323c0-0.263,0.069-0.495,0.183-0.686
					C81.093,19.235,81.493,19.024,81.953,19.099z M58.646,15c0.52,0.068,0.974,0.411,1.236,0.872
					c0.148,0.261,0.237,0.559,0.237,0.868c0,0.356-0.119,0.666-0.312,0.904c-0.103,0.127-0.224,0.234-0.365,0.313
					c-0.229,0.128-0.502,0.188-0.796,0.151c-0.338-0.041-0.647-0.203-0.896-0.434c-0.047-0.043-0.094-0.086-0.136-0.134
					c-0.278-0.317-0.453-0.734-0.453-1.173c0-0.366,0.125-0.682,0.326-0.921C57.759,15.12,58.175,14.938,58.646,15z M27.061,11.167
					c0-0.97,0.864-1.598,1.922-1.404c0.572,0.105,1.077,0.433,1.423,0.861c0.289,0.357,0.469,0.782,0.469,1.216
					c0,0.357-0.118,0.668-0.32,0.909c-0.107,0.128-0.243,0.229-0.393,0.313c-0.324,0.183-0.73,0.263-1.18,0.187
					c-0.446-0.076-0.853-0.291-1.181-0.581c-0.027-0.024-0.055-0.049-0.082-0.075c-0.03-0.028-0.063-0.054-0.091-0.084
					C27.278,12.132,27.061,11.654,27.061,11.167z M30.555,42.693c-0.321,0.485-0.908,0.802-1.589,0.782
					c-0.523-0.015-0.996-0.225-1.336-0.549c-0.329-0.313-0.533-0.733-0.533-1.19s0.205-0.863,0.533-1.154
					c0.34-0.3,0.813-0.479,1.336-0.458c0.329,0.013,0.633,0.109,0.901,0.254c0.286,0.156,0.522,0.374,0.688,0.635
					c0.161,0.253,0.259,0.542,0.259,0.849c0,0.251-0.065,0.484-0.176,0.695C30.614,42.604,30.584,42.65,30.555,42.693z
					 M57.614,67.965c0.234-0.171,0.513-0.281,0.814-0.302c0.634-0.043,1.169,0.325,1.38,0.876c0.058,0.153,0.093,0.318,0.096,0.495
					c0,0.008,0.002,0.016,0.002,0.024c0,0.186-0.037,0.365-0.098,0.533c-0.21,0.583-0.746,1.027-1.38,1.076
					c-0.301,0.022-0.58-0.048-0.814-0.186c-0.407-0.238-0.677-0.681-0.677-1.21c0-0.018,0.004-0.034,0.005-0.053
					C56.959,68.712,57.221,68.252,57.614,67.965z M59,65.521V46.122c2-0.315,2.069-0.999,2.488-1.884l17.465,0.939
					C79.325,46.164,80,46.917,81,47.188v17.293c-1,0.357-2.275,1.747-2.344,3.371L62,68.9c0-0.035,0-0.068,0-0.103
					C62,67.233,61,65.973,59,65.521z M82.546,69.493l-0.491,0.045l-0.749,0.063l0.712-0.063L82.546,69.493V69.49l0.372-0.029
					l-0.372,0.029V69.493z"/>
			</g>
		</g>
		<path fill="#FDFDFD" d="M30.875,70.934c0,0,0-0.001,0-0.003c0-0.027-0.006-0.054-0.009-0.081h-0.001
			C30.867,70.88,30.875,70.904,30.875,70.934z"/>
		<line fill="#FDFDFD" x1="30.92" y1="73.17" x2="30.92" y2="73.17"/>
		<line fill="#FDFDFD" x1="30.92" y1="73.17" x2="30.92" y2="73.17"/>
		<line fill="#FDFDFD" x1="31.286" y1="73.17" x2="31.286" y2="73.17"/>
		<line fill="#FDFDFD" x1="31.286" y1="73.17" x2="31.286" y2="73.17"/>
		<line fill="#FDFDFD" x1="32.018" y1="73.17" x2="32.018" y2="73.17"/>
		<line fill="#FDFDFD" x1="30.92" y1="73.17" x2="30.92" y2="73.17"/>
		<path fill="#FDFDFD" d="M27.656,72.805"/>
	</g>
</g>
<text transform="matrix(1 0 0 1 94.7998 65.6406)" fill="#32A26A" font-family="'STXihei'" font-size="32.1509">TransPortal</text>
</svg>
