<?xml version="1.0" encoding="utf-8"?>
<!-- Generator: Adobe Illustrator 15.1.0, SVG Export Plug-In . SVG Version: 6.00 Build 0)  -->
<!DOCTYPE svg PUBLIC "-//W3C//DTD SVG 1.1//EN" "http://www.w3.org/Graphics/SVG/1.1/DTD/svg11.dtd">
<svg version="1.1" id="Ebene_1" xmlns="http://www.w3.org/2000/svg" xmlns:xlink="http://www.w3.org/1999/xlink" x="0px" y="0px"
	 width="595.28px" height="300px" viewBox="0 0 595.28 841.89" enable-background="new 0 0 595.28 841.89" xml:space="preserve">
<g>
	<polygon fill="none" points="17.82,149.973 17.759,149.977 17.82,149.975 	"/>
	<polygon fill="none" points="17.857,149.96 18.042,149.938 17.819,149.952 17.822,149.963 17.835,149.962 	"/>
	<polygon fill="none" points="18.013,149.988 19.589,149.845 19.589,149.857 18.009,149.988 	"/>
	<polygon fill="none" points="16.482,150 16.46,150 16.023,150.029 15.747,150.053 15.83,150.049 15.696,150.059 15.645,150.063 
		15.83,150.053 15.567,150.069 15.369,150.088 15.05,150.105 14.798,150.064 14.329,150 14.325,150 11.225,150.279 11.345,150.311 
		12.048,150.297 12.027,150.309 8.041,150.398 12.063,150 12.087,150 14.402,150.015 14.45,150.09 14.896,150.098 14.849,150.119 
		15.149,150.084 15,150.089 15,150.084 15.527,150 15.531,150 16.486,150 	"/>
	<polygon fill="none" points="13.126,150.03 9.818,150.115 10.844,150 10.856,150 	"/>
	<polygon fill="none" points="14.777,150.045 14.449,150.078 14.615,150.068 14.884,150.038 	"/>
	<polygon fill="none" points="10.844,150.105 9.438,150 9.497,150 9.615,150.184 13.815,150 14.406,150 10.437,150.19 	"/>
	<polygon fill="none" points="15.845,150.085 16.673,150 16.634,150 16.835,150.014 17.563,149.973 17.185,149.994 16.77,149.982 
		15.895,150 15.891,150 15,150.031 15,150.051 15.776,150.022 16.308,150 16.406,150 15.702,150.047 15,150.094 15,150.098 
		15.711,150 15.71,150 15.354,150 15.353,150 15.345,150 13.711,150.172 13.311,150.23 13.345,150.242 14.849,150.164 
		15.843,150.098 	"/>
	<polygon fill="none" points="15.305,150.076 15.252,150.08 15.196,150.088 15.538,150.068 15.696,150.059 15.747,150.053 	"/>
	<polygon fill="none" points="19.566,149.989 19.624,149.988 19.567,149.988 	"/>
	<path fill="none" d="M17.829,149.988h0.006h0.002l1.838-0.162c0.004-0.008,0.008-0.031,0.013-0.037l-1.871,0.158L17.829,149.988z"
		/>
	<path fill="none" d="M19.778,149.857l0.009-0.008c0,0,0.001-0.002,0.002-0.003c0-0.002,0.001-0.004,0.003-0.006l-0.005,0.001
		C19.783,149.848,19.781,149.852,19.778,149.857z"/>
	<path fill="none" d="M14.608,142.79c-0.769-0.981-2.076-1.565-3.563-1.45c-1.201,0.094-2.291,0.624-3.079,1.405
		c-0.778,0.771-1.261,1.788-1.261,2.87s0.483,2.018,1.261,2.662c0.014,0.011,0.029,0.021,0.043,0.032
		c0.784,0.629,1.855,0.968,3.036,0.864c1.488-0.131,2.795-0.93,3.563-2.037c0.457-0.656,0.606-1.413,0.609-2.211
		c0-0.004-0.217-0.008-0.217-0.012c0-0.002,0-0.003,0-0.004c0-0.002,0-0.004,0-0.006c0-0.063,0.152-0.119,0.146-0.182l6.185-0.36
		c0,0.016,0.057-0.136,0.057-0.112l0,0c0-0.025,0.052-0.25,0.052-0.25h0.002c-0.001,0-0.002,0.154-0.002,0.142l-6.128,0.472
		C15.27,143.893,15.026,143.324,14.608,142.79z M15.334,144.904c0,0.002-0.001,0.004-0.001,0.006c0-0.068-0.018-0.123-0.021-0.19
		h0.001C15.32,144.782,15.334,144.841,15.334,144.904z"/>
	<path fill="none" d="M18.622,149.92l-0.053,0.003l-0.427,0.038l1.481-0.063l-1.969,0.112l0.735-0.029l0.232-0.016l1.006-0.055
		c0.003-0.004,0.007-0.008,0.011-0.014c0.007-0.012,0.018-0.021,0.025-0.033L18.622,149.92z"/>
	<polygon fill="none" points="19.709,149.986 19.708,149.988 19.709,149.986 	"/>
	<path fill="none" d="M76,132.585V88.664c-3-0.756-4.612-2.691-5.62-5.195l-48.94-2.643C20.764,84.125,18,86.777,15,87.862v48.162
		c4,1.042,6.588,4.267,6.637,8.296l47.767-2.982C69.555,137.293,72,133.719,76,132.585z"/>
	<path fill="none" d="M19.7,149.953v0.002c0.001-0.01,0.001-0.022,0.001-0.023L19.7,149.953z"/>
	<rect x="19.702" y="149.974" fill="none" width="0.005" height="0"/>
	<path fill="none" d="M19.78,149.842L19.78,149.842c-0.006,0.01-0.012,0.019-0.017,0.028h0
		C19.77,149.86,19.774,149.852,19.78,149.842z"/>
	<path fill="none" d="M20.263,148.934c0.017-0.034,0.035-0.068,0.051-0.104c0.021-0.038,0.037-0.079,0.057-0.117
		c0.372-0.828,0.623-1.67,0.756-2.536c0.033-0.229,0.061-0.46,0.079-0.69c-0.02,0.229-0.047,0.457-0.083,0.684
		c-0.008,0.053-0.021,0.105-0.03,0.16c-0.155,0.895-0.435,1.768-0.841,2.621C20.256,148.945,20.26,148.939,20.263,148.934z"/>
	<polygon fill="none" points="8.031,149.285 14.608,149.24 8.031,149.285 	"/>
	<path fill="none" d="M8.357,12.615c0.743,0.66,1.667,1.148,2.681,1.319c1.021,0.173,1.943-0.007,2.679-0.423
		c0.34-0.191,0.648-0.422,0.891-0.713c0.459-0.547,0.727-1.254,0.727-2.063c0-0.986-0.41-1.951-1.065-2.762
		c-0.787-0.973-1.933-1.717-3.231-1.955C8.636,5.578,6.674,7.004,6.674,9.207c0,1.105,0.495,2.19,1.292,3.048
		c0.063,0.067,0.139,0.125,0.206,0.19C8.232,12.504,8.294,12.561,8.357,12.615z"/>
	<path fill="none" d="M76.046,23.674c0.096,0.109,0.202,0.207,0.308,0.305c0.567,0.525,1.268,0.893,2.036,0.986
		c0.668,0.082,1.288-0.053,1.809-0.344c0.321-0.178,0.596-0.422,0.829-0.709c0.437-0.541,0.707-1.244,0.707-2.053
		c0-0.701-0.2-1.379-0.538-1.971c-0.595-1.047-1.626-1.826-2.807-1.98c-1.069-0.14-2.013,0.273-2.632,1.012
		c-0.456,0.545-0.739,1.261-0.739,2.091C75.019,22.008,75.415,22.953,76.046,23.674z"/>
	<path fill="none" d="M129.94,32.934c0.023,0.018,0.048,0.037,0.071,0.055c0.393,0.281,0.828,0.484,1.297,0.555
		c0.471,0.072,0.906,0,1.296-0.164c0.249-0.105,0.482-0.244,0.682-0.429c0.531-0.491,0.862-1.239,0.862-2.125
		c0-0.581-0.15-1.143-0.398-1.649c-0.492-1.012-1.395-1.79-2.441-1.96c-1.044-0.169-1.951,0.311-2.453,1.156
		c-0.258,0.435-0.415,0.961-0.415,1.558C128.44,31.133,129.052,32.259,129.94,32.934z"/>
	<path fill="none" d="M76,71.858V29.364c-3-1.147-4.782-3.553-5.674-6.389l-49.358-8.283C19.912,17.168,17,18.957,15,19.58v50.254
		c2,1.006,4.517,2.891,5.667,5.217L70.01,78.26C70.676,75.059,73,72.592,76,71.858z"/>
	<path fill="none" d="M78.298,76.892c-0.867-0.032-1.651,0.278-2.251,0.798c-0.298,0.258-0.543,0.568-0.733,0.92
		c-0.255,0.473-0.415,1.011-0.415,1.598c0,1.021,0.449,1.941,1.147,2.591c0.601,0.559,1.385,0.92,2.251,0.943
		c1.13,0.029,2.121-0.511,2.73-1.356c0.394-0.549,0.631-1.221,0.631-1.961c0-0.505-0.115-0.984-0.31-1.424
		c-0.09-0.202-0.197-0.395-0.322-0.576C80.419,77.539,79.428,76.935,78.298,76.892z"/>
	<path fill="none" d="M19.693,149.965c0.001,0.006,0.003,0.008,0.005,0.012c0-0.015,0.001-0.066,0.003-0.068l-0.001-0.002l0,0
		l-0.003-0.004c-0.001,0.017-0.002,0.033-0.004,0.049l0.002,0.002C19.694,149.959,19.693,149.96,19.693,149.965z"/>
	<polygon fill="none" points="133,141.63 133,141.637 131.715,141.74 129.936,141.883 131.677,141.74 133,141.637 133,141.63 
		133.844,141.564 	"/>
	<path fill="none" d="M130,75.852V37.738c-2-0.81-4.278-2.983-5.076-5.643l-38.933-6.504C85.127,27.813,83,29.4,81,29.908v42.326
		c3,1.159,5.051,3.877,5.492,7.101l38.434,2.493C125.418,78.801,127,76.465,130,75.852z"/>
	<path fill="none" d="M14.608,76.974c-0.376-0.593-0.914-1.088-1.563-1.442c-0.607-0.331-1.298-0.548-2.046-0.577
		c-1.188-0.046-2.261,0.358-3.033,1.041c-0.746,0.661-1.21,1.582-1.21,2.62c0,1.039,0.465,1.992,1.21,2.703
		c0.771,0.734,1.845,1.212,3.033,1.246c1.548,0.045,2.881-0.676,3.609-1.775c0.067-0.1,0.134-0.202,0.19-0.31
		c0.25-0.478,0.399-1.009,0.399-1.578C15.197,78.203,14.973,77.549,14.608,76.974z"/>
	<path fill="none" d="M76.046,143.883c0.532,0.313,1.166,0.473,1.849,0.422c1.44-0.11,2.655-1.121,3.133-2.443
		c0.139-0.382,0.224-0.788,0.224-1.21c0-0.019-0.005-0.036-0.005-0.056c-0.007-0.4-0.086-0.775-0.218-1.123
		c-0.478-1.251-1.693-2.088-3.133-1.99c-0.683,0.047-1.317,0.298-1.849,0.687c-0.892,0.651-1.485,1.695-1.524,2.846
		c-0.001,0.042-0.012,0.079-0.012,0.12C74.51,142.336,75.123,143.342,76.046,143.883z"/>
	<path fill="none" d="M124.315,137.914c0.155-3.688,2.685-6.844,5.685-7.654V90.994c-2-0.616-3.772-2.326-4.615-4.567l-39.642-2.132
		C84.792,86.306,83,87.855,81,88.572v44.047c3,1.027,5.135,3.889,5.135,7.439c0,0.078-0.006,0.154-0.008,0.232L124.315,137.914z"/>
	<path fill="none" d="M15.551,150.013L15.84,150h-0.002h0.011h0.001h0.001h0.024h0.002l0.087-0.011l3.723-0.249
		c0.004-0.004,0.009,0.002,0.013-0.004l-1.338,0.078l-2.881,0.189L15.551,150.013z"/>
	<path fill="none" d="M20.595,147.717c0.397-1.037,0.405-2.133,0.405-3.254c0-0.001,0-0.001,0-0.002
		c0,1.116-0.118,2.205-0.511,3.236C20.487,147.705,20.596,147.711,20.595,147.717z"/>
	<path fill="none" d="M19.775,149.86L19.775,149.86c0.004-0.007,0.007-0.013,0.01-0.019h0
		C19.782,149.848,19.778,149.854,19.775,149.86z"/>
	<polygon fill="none" points="15.292,149.994 15.318,149.99 15.29,149.993 15.288,149.994 	"/>
	<path fill="none" d="M131.602,80.169c-0.592-0.013-1.139,0.192-1.59,0.55c-0.428,0.338-0.771,0.813-0.976,1.375
		c-0.14,0.383-0.218,0.805-0.218,1.249c0,1.101,0.475,2.075,1.193,2.673c0.451,0.375,0.998,0.604,1.59,0.613
		c0.604,0.012,1.158-0.211,1.613-0.585c0.418-0.344,0.751-0.817,0.949-1.376c0.132-0.374,0.207-0.782,0.207-1.213
		c0-0.432-0.075-0.842-0.207-1.221C133.751,81.049,132.76,80.195,131.602,80.169z"/>
	<polygon fill="none" points="8.041,150.277 15.287,150 15.29,150 15.349,150 15.354,150 15.36,150 15.356,150 15.371,149.995 
		18.363,149.816 19.342,149.752 14.889,149.988 12.032,150.14 12.027,150.154 10.914,150.199 8.772,150.313 8.041,150.211 8.03,149 
		8.028,149 	"/>
	<path fill="none" d="M131.227,134.785c-0.438,0.05-0.847,0.226-1.215,0.477c-0.758,0.518-1.314,1.393-1.467,2.389
		c-0.027,0.18-0.048,0.361-0.048,0.546c0,1.214,0.621,2.177,1.515,2.575c0.368,0.164,0.776,0.242,1.215,0.187
		c0.828-0.103,1.559-0.622,2.055-1.347c0.4-0.586,0.652-1.303,0.652-2.061C133.934,135.853,132.725,134.617,131.227,134.785z"/>
	<path fill="#34A26B" d="M19.792,150c0.002,0,0.002-0.084,0.004-0.087l0.087-0.04C19.852,149.926,19.826,150,19.792,150h0.002
		c0.034,0,0.06-0.113,0.092-0.167l50.735-3.667c-0.156-1.466-1.34-3.51-1.333-4.487c0.002-0.337,0.037-0.226,0.042-0.339
		l-47.889,2.803c0,0.012,0.001-0.143,0.002-0.143H21.44c0,0,0.002,0.225,0.002,0.25l0,0c0-0.023-0.002,0.039-0.002,0.023
		l-6.138,0.32c0.006,0.063-0.015,0.404-0.015,0.469c0,0.002,0-0.002,0,0s0-0.002,0,0c0,0.004,0.046-0.156,0.046-0.152
		c-0.167,0.943-0.378,1.57-0.835,2.227c-0.769,1.107-2.021,1.906-3.508,2.037c-1.18,0.104-2.224-0.235-3.008-0.864
		c-0.014-0.012-0.015-0.021-0.029-0.032c-0.778-0.645-1.254-1.58-1.254-2.662s0.486-2.099,1.265-2.87
		c0.788-0.781,1.879-1.312,3.081-1.405c1.487-0.115,2.795,0.469,3.564,1.45c0.418,0.534,0.662,1.191,0.705,1.912l6.325-0.382
		c-0.048-4.029-2.636-7.254-6.636-8.296V87.862c3-1.085,5.775-3.737,6.451-7.036l49.027,2.643C71.486,85.973,73,87.908,76,88.664
		v43.921c-4,1.134-6.543,4.708-6.694,8.753c-0.005,0.113-0.118,0.268-0.118,0.381c0,1.703,0.606,3.194,1.434,4.447
		c1.51,2.287,4.173,3.636,7.193,3.314c2.818-0.301,5.292-1.988,6.798-4.324l40.682-2.941c1.208,2.17,3.4,3.514,5.899,3.311
		c3.752-0.309,6.688-3.986,6.688-8.221c0-3.027-1.881-5.539-3.881-6.645V90.703c3-1.119,4.08-3.836,4.08-7.034
		S137,77.654,134,76.391V37.633c2-0.962,3.884-3.408,3.884-6.463c0-4.226-2.921-8.068-6.608-8.59
		c-3.188-0.449-5.854,1.727-6.571,5.057l-38.329-6.825c-0.777-3.997-4.064-7.44-8.05-8.089c-3.894-0.635-7.191,1.604-8.146,5.205
		l-49.03-8.729c-1.095-4.396-5.258-8.153-10.285-8.876C4.93-0.53,0.085,3.163,0.085,8.582c0,4.5,2.915,8.702,7.915,10.424v50.283
		c-5,0.953-7.887,4.568-7.887,9.063S3,86.693,8,87.955v48.342c-5,1.502-7.801,5.48-7.801,9.929c0,5.411,4.885,9.306,10.813,8.706
		c3.565-0.359,6.669-2.305,8.55-4.932l0.052-0.002c0.008-0.012,0.018,0.024,0.026,0.024c0.005,0,0.012-0.022,0.018-0.022h0.017
		c0.002,0,0.004-0.028,0.007-0.023l-0.007-0.025c0.002-0.003,0.005-0.001,0.007,0.005c0.003,0.007,0.006,0.009,0.009,0.019
		c-0.002,0.01-0.002,0.025-0.003,0.025h0.001H20l0,0 M20,150v-0.006c0,0.002-0.002,0-0.002,0.004
		c0.002-0.002-0.614-0.121-0.614-0.123L20,149.989v0.005l0,0V150h-0.29c0.004,0,0.112-0.021,0.116-0.029
		c0.023-0.039,0.174-0.086,0.174-0.124l-0.405-0.058c0-0.002,0.199,0.211,0.199,0.211h-0.002c-0.001,0-0.002-0.076-0.003-0.074
		c-0.001,0.002-0.002-0.037-0.002-0.037l-0.009,0.068 M15.868,149.986h-0.004H15.86h0.004H15.868z M19.779,149.842L19.779,149.842
		c-0.005,0.01-0.01,0.019-0.016,0.028h0C19.769,149.86,19.774,149.852,19.779,149.842z M19.706,149.972
		c-0.001,0.001-0.002,0.003-0.002,0.005l0,0C19.704,149.975,19.705,149.973,19.706,149.972L19.706,149.972z M19.7,149.953
		l0.001-0.021c0,0.001,0,0.014-0.001,0.023V149.953z M19.566,149.989C19.566,149.989,19.567,149.989,19.566,149.989l0.058-0.001
		L19.566,149.989z M19.696,149.902l0.003,0.004l0,0l0.001,0.002c-0.001,0.002-0.002,0.054-0.003,0.068
		c-0.002-0.004-0.003-0.006-0.005-0.012c0-0.005,0.001-0.006,0.001-0.012l-0.002-0.002
		C19.694,149.936,19.695,149.919,19.696,149.902z M19.776,149.859L19.776,149.859c0.002-0.006,0.006-0.012,0.009-0.018h0
		C19.783,149.848,19.779,149.854,19.776,149.859z M131.227,140.958c-0.438,0.056-0.847-0.022-1.215-0.187
		c-0.894-0.398-1.515-1.361-1.515-2.575c0-0.185,0.021-0.366,0.048-0.546c0.152-0.996,0.709-1.871,1.467-2.389
		c0.368-0.251,0.776-0.427,1.215-0.477c1.498-0.168,2.707,1.067,2.707,2.766c0,0.758-0.252,1.475-0.652,2.061
		C132.785,140.336,132.055,140.855,131.227,140.958z M134.371,83.455c0,0.431-0.075,0.839-0.207,1.213
		c-0.198,0.559-0.531,1.032-0.949,1.376c-0.455,0.374-1.01,0.597-1.613,0.585c-0.592-0.01-1.139-0.238-1.59-0.613
		c-0.719-0.598-1.193-1.572-1.193-2.673c0-0.444,0.078-0.866,0.218-1.249c0.205-0.563,0.548-1.037,0.976-1.375
		c0.451-0.357,0.998-0.563,1.59-0.55c1.158,0.026,2.149,0.88,2.563,2.065C134.296,82.613,134.371,83.023,134.371,83.455z
		 M86.492,79.335C86.051,76.111,84,73.394,81,72.234V29.908c2-0.508,4.13-2.096,4.994-4.316l38.923,6.504
		c0.798,2.659,3.083,4.833,5.083,5.643v38.113c-3,0.613-4.582,2.949-5.074,5.977L86.492,79.335z M81.659,80.424
		c0,0.74-0.237,1.412-0.631,1.961c-0.609,0.846-1.6,1.386-2.73,1.356c-0.867-0.023-1.651-0.385-2.251-0.943
		c-0.698-0.649-1.147-1.569-1.147-2.591c0-0.587,0.159-1.125,0.415-1.598c0.189-0.352,0.435-0.662,0.733-0.92
		c0.601-0.52,1.385-0.83,2.251-0.798c1.13,0.043,2.121,0.647,2.73,1.532c0.125,0.182,0.232,0.374,0.322,0.576
		C81.544,79.439,81.659,79.919,81.659,80.424z M15,69.834V19.58c2-0.623,4.924-2.412,5.979-4.888l49.445,8.283
		C71.315,25.812,73,28.217,76,29.364v42.494c-3,0.733-5.422,3.2-6.088,6.401l-49.257-3.209C19.505,72.725,17,70.84,15,69.834z
		 M131.309,27.216c1.047,0.17,1.949,0.948,2.441,1.96c0.248,0.507,0.398,1.068,0.398,1.649c0,0.886-0.331,1.634-0.862,2.125
		c-0.199,0.185-0.433,0.323-0.682,0.429c-0.39,0.164-0.825,0.236-1.296,0.164c-0.469-0.07-0.904-0.273-1.297-0.555
		c-0.023-0.018-0.048-0.037-0.071-0.055c-0.889-0.675-1.5-1.801-1.5-3.004c0-0.597,0.157-1.123,0.415-1.558
		C129.357,27.526,130.265,27.047,131.309,27.216z M78.39,17.908c1.181,0.154,2.212,0.934,2.807,1.98
		c0.337,0.592,0.538,1.27,0.538,1.971c0,0.809-0.27,1.512-0.707,2.053c-0.233,0.287-0.508,0.531-0.829,0.709
		c-0.521,0.291-1.141,0.426-1.809,0.344c-0.768-0.094-1.468-0.461-2.036-0.986c-0.106-0.098-0.212-0.195-0.308-0.305
		c-0.632-0.721-1.027-1.666-1.027-2.663c0-0.83,0.284-1.546,0.739-2.091C76.377,18.182,77.321,17.769,78.39,17.908z M6.674,9.207
		c0-2.203,1.962-3.629,4.364-3.188c1.298,0.238,2.444,0.982,3.231,1.955c0.656,0.811,1.065,1.775,1.065,2.762
		c0,0.809-0.268,1.516-0.727,2.063c-0.243,0.291-0.551,0.521-0.891,0.713c-0.735,0.416-1.658,0.596-2.679,0.423
		c-1.014-0.171-1.938-0.659-2.681-1.319c-0.063-0.055-0.125-0.111-0.186-0.17c-0.067-0.065-0.143-0.123-0.206-0.19
		C7.169,11.397,6.674,10.313,6.674,9.207z M14.608,80.789c-0.728,1.1-2.061,1.82-3.609,1.775c-1.188-0.034-2.261-0.512-3.033-1.246
		c-0.746-0.711-1.21-1.664-1.21-2.703c0-1.038,0.465-1.959,1.21-2.62c0.771-0.683,1.845-1.087,3.033-1.041
		c0.748,0.029,1.439,0.246,2.046,0.577c0.649,0.354,1.187,0.85,1.563,1.442c0.365,0.575,0.589,1.229,0.589,1.928
		c0,0.569-0.149,1.101-0.399,1.578C14.742,80.587,14.675,80.689,14.608,80.789z M76.046,138.169c0.532-0.389,1.166-0.64,1.849-0.687
		c1.44-0.098,2.655,0.739,3.133,1.99c0.132,0.348,0.211,0.723,0.218,1.123c0,0.02,0.005,0.037,0.005,0.056
		c0,0.422-0.085,0.828-0.224,1.21c-0.478,1.322-1.693,2.333-3.133,2.443c-0.683,0.051-1.317-0.109-1.849-0.422
		c-0.923-0.541-1.537-1.547-1.537-2.748c0-0.041,0.011-0.078,0.012-0.12C74.562,139.864,75.154,138.82,76.046,138.169z M81,132.619
		V88.572c2-0.717,3.795-2.267,4.746-4.277l39.631,2.132c0.844,2.241,2.623,3.951,4.623,4.567v39.266
		c-3,0.811-5.529,3.967-5.685,7.654l-38.181,2.377c0.002-0.078-0.002-0.154-0.002-0.232C86.133,136.508,84,133.646,81,132.619z
		 M133,141.637l-1.285,0.104l-1.786,0.143l1.745-0.143L133,141.637v-0.007l0.844-0.065L133,141.63V141.637z"/>
	<path fill="#AB549B" d="M15.333,144.91c0-0.002,0.001-0.004,0.001-0.006c0-0.063-0.015-0.122-0.021-0.185h-0.001
		C15.316,144.787,15.333,144.842,15.333,144.91z"/>
	
		<line fill="none" stroke="#AB549B" stroke-width="0" stroke-linecap="round" stroke-linejoin="round" x1="15.438" y1="149.988" x2="15.438" y2="149.988"/>
	
		<line fill="none" stroke="#AB549B" stroke-width="0" stroke-linecap="round" stroke-linejoin="round" x1="15.438" y1="149.988" x2="15.438" y2="149.988"/>
	
		<line fill="none" stroke="#AB549B" stroke-width="0" stroke-linecap="round" stroke-linejoin="round" x1="16.269" y1="149.988" x2="16.269" y2="149.988"/>
	
		<line fill="none" stroke="#AB549B" stroke-width="0" stroke-linecap="round" stroke-linejoin="round" x1="16.269" y1="149.988" x2="16.269" y2="149.988"/>
	
		<line fill="none" stroke="#AB549B" stroke-width="0" stroke-linecap="round" stroke-linejoin="round" x1="17.929" y1="149.988" x2="17.929" y2="149.988"/>
	
		<line fill="none" stroke="#AB549B" stroke-width="0" stroke-linecap="round" stroke-linejoin="round" x1="15.438" y1="149.988" x2="15.438" y2="149.988"/>
	<path fill="none" stroke="#AB549B" stroke-width="0" stroke-linecap="round" stroke-linejoin="round" d="M8.025,149.157"/>
</g>
<text transform="matrix(1 0 0 1 157.8911 133.8926)" fill="#34A26B" font-family="'STXihei'" font-size="74">TransPortal</text>
</svg>
