<?xml version="1.0" encoding="UTF-8" standalone="no"?>
<!-- Created with Inkscape (http://www.inkscape.org/) -->

<svg
   xmlns:dc="http://purl.org/dc/elements/1.1/"
   xmlns:cc="http://creativecommons.org/ns#"
   xmlns:rdf="http://www.w3.org/1999/02/22-rdf-syntax-ns#"
   xmlns:svg="http://www.w3.org/2000/svg"
   xmlns="http://www.w3.org/2000/svg"
   xmlns:sodipodi="http://sodipodi.sourceforge.net/DTD/sodipodi-0.dtd"
   xmlns:inkscape="http://www.inkscape.org/namespaces/inkscape"
   width="210mm"
   height="297mm"
   id="svg5626"
   version="1.1"
   inkscape:version="0.48.4 r9939"
   sodipodi:docname="Stern.svg">
  <defs
     id="defs5628" />
  <sodipodi:namedview
     id="base"
     pagecolor="#ffffff"
     bordercolor="#666666"
     borderopacity="1.0"
     inkscape:pageopacity="0.0"
     inkscape:pageshadow="2"
     inkscape:zoom="1.1634766"
     inkscape:cx="350"
     inkscape:cy="695.59964"
     inkscape:document-units="px"
     inkscape:current-layer="layer1"
     showgrid="false"
     inkscape:window-width="1920"
     inkscape:window-height="1018"
     inkscape:window-x="-8"
     inkscape:window-y="-8"
     inkscape:window-maximized="1" />
  <metadata
     id="metadata5631">
    <rdf:RDF>
      <cc:Work
         rdf:about="">
        <dc:format>image/svg+xml</dc:format>
        <dc:type
           rdf:resource="http://purl.org/dc/dcmitype/StillImage" />
        <dc:title></dc:title>
      </cc:Work>
    </rdf:RDF>
  </metadata>
  <g
     inkscape:label="Ebene 1"
     inkscape:groupmode="layer"
     id="layer1">
    <path
       sodipodi:type="star"
       style="fill:none;stroke:#000000;stroke-width:0.35433072;stroke-miterlimit:4;stroke-opacity:1;stroke-dasharray:none"
       id="path3294"
       sodipodi:sides="5"
       sodipodi:cx="-384.98712"
       sodipodi:cy="-125.84819"
       sodipodi:r1="48.081917"
       sodipodi:r2="20.771387"
       sodipodi:arg1="1.5707963"
       sodipodi:arg2="2.1991149"
       inkscape:flatsided="false"
       inkscape:rounded="0.08"
       inkscape:randomized="0"
       d="m -384.98712,-77.766273 c -2.68608,-10e-7 -10.03604,-29.698677 -12.20912,-31.277517 -2.17308,-1.57883 -32.68946,0.60834 -33.5195,-1.94627 -0.83004,-2.55461 25.14381,-18.72223 25.97386,-21.27684 0.83004,-2.55461 -10.68017,-30.90154 -8.50708,-32.48038 2.17308,-1.57883 25.57576,18.1277 28.26184,18.1277 2.68608,0 26.08876,-19.70654 28.26184,-18.1277 2.17308,1.57884 -9.33712,29.92577 -8.50708,32.48038 0.83005,2.55461 26.8039,18.72223 25.97386,21.27684 -0.83004,2.55461 -31.34643,0.36744 -33.51951,1.94628 -2.17308,1.57883 -9.52303,31.277507 -12.20911,31.277507 z"
       transform="translate(456.41569,199.37826)"
       inkscape:transform-center-y="4.5439226" />
    <path
       inkscape:transform-center-y="4.5439226"
       transform="translate(562.7149,199.37826)"
       d="m -384.98712,-77.766273 c -2.68608,-10e-7 -10.03604,-29.698677 -12.20912,-31.277517 -2.17308,-1.57883 -32.68946,0.60834 -33.5195,-1.94627 -0.83004,-2.55461 25.14381,-18.72223 25.97386,-21.27684 0.83004,-2.55461 -10.68017,-30.90154 -8.50708,-32.48038 2.17308,-1.57883 25.57576,18.1277 28.26184,18.1277 2.68608,0 26.08876,-19.70654 28.26184,-18.1277 2.17308,1.57884 -9.33712,29.92577 -8.50708,32.48038 0.83005,2.55461 26.8039,18.72223 25.97386,21.27684 -0.83004,2.55461 -31.34643,0.36744 -33.51951,1.94628 -2.17308,1.57883 -9.52303,31.277507 -12.20911,31.277507 z"
       inkscape:randomized="0"
       inkscape:rounded="0.08"
       inkscape:flatsided="false"
       sodipodi:arg2="2.1991149"
       sodipodi:arg1="1.5707963"
       sodipodi:r2="20.771387"
       sodipodi:r1="48.081917"
       sodipodi:cy="-125.84819"
       sodipodi:cx="-384.98712"
       sodipodi:sides="5"
       id="path5641"
       style="fill:none;stroke:#000000;stroke-width:0.35433072;stroke-miterlimit:4;stroke-opacity:1;stroke-dasharray:none"
       sodipodi:type="star" />
    <path
       sodipodi:type="star"
       style="fill:none;stroke:#000000;stroke-width:0.35433072;stroke-miterlimit:4;stroke-opacity:1;stroke-dasharray:none"
       id="path5643"
       sodipodi:sides="5"
       sodipodi:cx="-384.98712"
       sodipodi:cy="-125.84819"
       sodipodi:r1="48.081917"
       sodipodi:r2="20.771387"
       sodipodi:arg1="1.5707963"
       sodipodi:arg2="2.1991149"
       inkscape:flatsided="false"
       inkscape:rounded="0.08"
       inkscape:randomized="0"
       d="m -384.98712,-77.766273 c -2.68608,-10e-7 -10.03604,-29.698677 -12.20912,-31.277517 -2.17308,-1.57883 -32.68946,0.60834 -33.5195,-1.94627 -0.83004,-2.55461 25.14381,-18.72223 25.97386,-21.27684 0.83004,-2.55461 -10.68017,-30.90154 -8.50708,-32.48038 2.17308,-1.57883 25.57576,18.1277 28.26184,18.1277 2.68608,0 26.08876,-19.70654 28.26184,-18.1277 2.17308,1.57884 -9.33712,29.92577 -8.50708,32.48038 0.83005,2.55461 26.8039,18.72223 25.97386,21.27684 -0.83004,2.55461 -31.34643,0.36744 -33.51951,1.94628 -2.17308,1.57883 -9.52303,31.277507 -12.20911,31.277507 z"
       transform="translate(669.01411,199.37826)"
       inkscape:transform-center-y="4.5439226" />
    <path
       inkscape:transform-center-y="4.5439226"
       transform="translate(775.31332,199.37826)"
       d="m -384.98712,-77.766273 c -2.68608,-10e-7 -10.03604,-29.698677 -12.20912,-31.277517 -2.17308,-1.57883 -32.68946,0.60834 -33.5195,-1.94627 -0.83004,-2.55461 25.14381,-18.72223 25.97386,-21.27684 0.83004,-2.55461 -10.68017,-30.90154 -8.50708,-32.48038 2.17308,-1.57883 25.57576,18.1277 28.26184,18.1277 2.68608,0 26.08876,-19.70654 28.26184,-18.1277 2.17308,1.57884 -9.33712,29.92577 -8.50708,32.48038 0.83005,2.55461 26.8039,18.72223 25.97386,21.27684 -0.83004,2.55461 -31.34643,0.36744 -33.51951,1.94628 -2.17308,1.57883 -9.52303,31.277507 -12.20911,31.277507 z"
       inkscape:randomized="0"
       inkscape:rounded="0.08"
       inkscape:flatsided="false"
       sodipodi:arg2="2.1991149"
       sodipodi:arg1="1.5707963"
       sodipodi:r2="20.771387"
       sodipodi:r1="48.081917"
       sodipodi:cy="-125.84819"
       sodipodi:cx="-384.98712"
       sodipodi:sides="5"
       id="path5645"
       style="fill:none;stroke:#000000;stroke-width:0.35433072;stroke-miterlimit:4;stroke-opacity:1;stroke-dasharray:none"
       sodipodi:type="star" />
    <path
       sodipodi:type="star"
       style="fill:none;stroke:#000000;stroke-width:0.35433072;stroke-miterlimit:4;stroke-opacity:1;stroke-dasharray:none"
       id="path5647"
       sodipodi:sides="5"
       sodipodi:cx="-384.98712"
       sodipodi:cy="-125.84819"
       sodipodi:r1="48.081917"
       sodipodi:r2="20.771387"
       sodipodi:arg1="1.5707963"
       sodipodi:arg2="2.1991149"
       inkscape:flatsided="false"
       inkscape:rounded="0.08"
       inkscape:randomized="0"
       d="m -384.98712,-77.766273 c -2.68608,-10e-7 -10.03604,-29.698677 -12.20912,-31.277517 -2.17308,-1.57883 -32.68946,0.60834 -33.5195,-1.94627 -0.83004,-2.55461 25.14381,-18.72223 25.97386,-21.27684 0.83004,-2.55461 -10.68017,-30.90154 -8.50708,-32.48038 2.17308,-1.57883 25.57576,18.1277 28.26184,18.1277 2.68608,0 26.08876,-19.70654 28.26184,-18.1277 2.17308,1.57884 -9.33712,29.92577 -8.50708,32.48038 0.83005,2.55461 26.8039,18.72223 25.97386,21.27684 -0.83004,2.55461 -31.34643,0.36744 -33.51951,1.94628 -2.17308,1.57883 -9.52303,31.277507 -12.20911,31.277507 z"
       transform="translate(881.61253,199.37826)"
       inkscape:transform-center-y="4.5439226" />
    <path
       inkscape:transform-center-y="4.5439226"
       transform="translate(458.99417,313.69083)"
       d="m -384.98712,-77.766273 c -2.68608,-10e-7 -10.03604,-29.698677 -12.20912,-31.277517 -2.17308,-1.57883 -32.68946,0.60834 -33.5195,-1.94627 -0.83004,-2.55461 25.14381,-18.72223 25.97386,-21.27684 0.83004,-2.55461 -10.68017,-30.90154 -8.50708,-32.48038 2.17308,-1.57883 25.57576,18.1277 28.26184,18.1277 2.68608,0 26.08876,-19.70654 28.26184,-18.1277 2.17308,1.57884 -9.33712,29.92577 -8.50708,32.48038 0.83005,2.55461 26.8039,18.72223 25.97386,21.27684 -0.83004,2.55461 -31.34643,0.36744 -33.51951,1.94628 -2.17308,1.57883 -9.52303,31.277507 -12.20911,31.277507 z"
       inkscape:randomized="0"
       inkscape:rounded="0.08"
       inkscape:flatsided="false"
       sodipodi:arg2="2.1991149"
       sodipodi:arg1="1.5707963"
       sodipodi:r2="20.771387"
       sodipodi:r1="48.081917"
       sodipodi:cy="-125.84819"
       sodipodi:cx="-384.98712"
       sodipodi:sides="5"
       id="path5649"
       style="fill:none;stroke:#000000;stroke-width:0.35433072;stroke-miterlimit:4;stroke-opacity:1;stroke-dasharray:none"
       sodipodi:type="star" />
    <path
       sodipodi:type="star"
       style="fill:none;stroke:#000000;stroke-width:0.35433072;stroke-miterlimit:4;stroke-opacity:1;stroke-dasharray:none"
       id="path5651"
       sodipodi:sides="5"
       sodipodi:cx="-384.98712"
       sodipodi:cy="-125.84819"
       sodipodi:r1="48.081917"
       sodipodi:r2="20.771387"
       sodipodi:arg1="1.5707963"
       sodipodi:arg2="2.1991149"
       inkscape:flatsided="false"
       inkscape:rounded="0.08"
       inkscape:randomized="0"
       d="m -384.98712,-77.766273 c -2.68608,-10e-7 -10.03604,-29.698677 -12.20912,-31.277517 -2.17308,-1.57883 -32.68946,0.60834 -33.5195,-1.94627 -0.83004,-2.55461 25.14381,-18.72223 25.97386,-21.27684 0.83004,-2.55461 -10.68017,-30.90154 -8.50708,-32.48038 2.17308,-1.57883 25.57576,18.1277 28.26184,18.1277 2.68608,0 26.08876,-19.70654 28.26184,-18.1277 2.17308,1.57884 -9.33712,29.92577 -8.50708,32.48038 0.83005,2.55461 26.8039,18.72223 25.97386,21.27684 -0.83004,2.55461 -31.34643,0.36744 -33.51951,1.94628 -2.17308,1.57883 -9.52303,31.277507 -12.20911,31.277507 z"
       transform="translate(565.29338,313.69083)"
       inkscape:transform-center-y="4.5439226" />
    <path
       inkscape:transform-center-y="4.5439226"
       transform="translate(671.59259,313.69083)"
       d="m -384.98712,-77.766273 c -2.68608,-10e-7 -10.03604,-29.698677 -12.20912,-31.277517 -2.17308,-1.57883 -32.68946,0.60834 -33.5195,-1.94627 -0.83004,-2.55461 25.14381,-18.72223 25.97386,-21.27684 0.83004,-2.55461 -10.68017,-30.90154 -8.50708,-32.48038 2.17308,-1.57883 25.57576,18.1277 28.26184,18.1277 2.68608,0 26.08876,-19.70654 28.26184,-18.1277 2.17308,1.57884 -9.33712,29.92577 -8.50708,32.48038 0.83005,2.55461 26.8039,18.72223 25.97386,21.27684 -0.83004,2.55461 -31.34643,0.36744 -33.51951,1.94628 -2.17308,1.57883 -9.52303,31.277507 -12.20911,31.277507 z"
       inkscape:randomized="0"
       inkscape:rounded="0.08"
       inkscape:flatsided="false"
       sodipodi:arg2="2.1991149"
       sodipodi:arg1="1.5707963"
       sodipodi:r2="20.771387"
       sodipodi:r1="48.081917"
       sodipodi:cy="-125.84819"
       sodipodi:cx="-384.98712"
       sodipodi:sides="5"
       id="path5653"
       style="fill:none;stroke:#000000;stroke-width:0.35433072;stroke-miterlimit:4;stroke-opacity:1;stroke-dasharray:none"
       sodipodi:type="star" />
    <path
       sodipodi:type="star"
       style="fill:none;stroke:#000000;stroke-width:0.35433072;stroke-miterlimit:4;stroke-opacity:1;stroke-dasharray:none"
       id="path5655"
       sodipodi:sides="5"
       sodipodi:cx="-384.98712"
       sodipodi:cy="-125.84819"
       sodipodi:r1="48.081917"
       sodipodi:r2="20.771387"
       sodipodi:arg1="1.5707963"
       sodipodi:arg2="2.1991149"
       inkscape:flatsided="false"
       inkscape:rounded="0.08"
       inkscape:randomized="0"
       d="m -384.98712,-77.766273 c -2.68608,-10e-7 -10.03604,-29.698677 -12.20912,-31.277517 -2.17308,-1.57883 -32.68946,0.60834 -33.5195,-1.94627 -0.83004,-2.55461 25.14381,-18.72223 25.97386,-21.27684 0.83004,-2.55461 -10.68017,-30.90154 -8.50708,-32.48038 2.17308,-1.57883 25.57576,18.1277 28.26184,18.1277 2.68608,0 26.08876,-19.70654 28.26184,-18.1277 2.17308,1.57884 -9.33712,29.92577 -8.50708,32.48038 0.83005,2.55461 26.8039,18.72223 25.97386,21.27684 -0.83004,2.55461 -31.34643,0.36744 -33.51951,1.94628 -2.17308,1.57883 -9.52303,31.277507 -12.20911,31.277507 z"
       transform="translate(777.8918,313.69083)"
       inkscape:transform-center-y="4.5439226" />
    <path
       inkscape:transform-center-y="4.5439226"
       transform="translate(884.19101,313.69083)"
       d="m -384.98712,-77.766273 c -2.68608,-10e-7 -10.03604,-29.698677 -12.20912,-31.277517 -2.17308,-1.57883 -32.68946,0.60834 -33.5195,-1.94627 -0.83004,-2.55461 25.14381,-18.72223 25.97386,-21.27684 0.83004,-2.55461 -10.68017,-30.90154 -8.50708,-32.48038 2.17308,-1.57883 25.57576,18.1277 28.26184,18.1277 2.68608,0 26.08876,-19.70654 28.26184,-18.1277 2.17308,1.57884 -9.33712,29.92577 -8.50708,32.48038 0.83005,2.55461 26.8039,18.72223 25.97386,21.27684 -0.83004,2.55461 -31.34643,0.36744 -33.51951,1.94628 -2.17308,1.57883 -9.52303,31.277507 -12.20911,31.277507 z"
       inkscape:randomized="0"
       inkscape:rounded="0.08"
       inkscape:flatsided="false"
       sodipodi:arg2="2.1991149"
       sodipodi:arg1="1.5707963"
       sodipodi:r2="20.771387"
       sodipodi:r1="48.081917"
       sodipodi:cy="-125.84819"
       sodipodi:cx="-384.98712"
       sodipodi:sides="5"
       id="path5657"
       style="fill:none;stroke:#000000;stroke-width:0.35433072;stroke-miterlimit:4;stroke-opacity:1;stroke-dasharray:none"
       sodipodi:type="star" />
    <path
       sodipodi:type="star"
       style="fill:none;stroke:#000000;stroke-width:0.35433072;stroke-miterlimit:4;stroke-opacity:1;stroke-dasharray:none"
       id="path5659"
       sodipodi:sides="5"
       sodipodi:cx="-384.98712"
       sodipodi:cy="-125.84819"
       sodipodi:r1="48.081917"
       sodipodi:r2="20.771387"
       sodipodi:arg1="1.5707963"
       sodipodi:arg2="2.1991149"
       inkscape:flatsided="false"
       inkscape:rounded="0.08"
       inkscape:randomized="0"
       d="m -384.98712,-77.766273 c -2.68608,-10e-7 -10.03604,-29.698677 -12.20912,-31.277517 -2.17308,-1.57883 -32.68946,0.60834 -33.5195,-1.94627 -0.83004,-2.55461 25.14381,-18.72223 25.97386,-21.27684 0.83004,-2.55461 -10.68017,-30.90154 -8.50708,-32.48038 2.17308,-1.57883 25.57576,18.1277 28.26184,18.1277 2.68608,0 26.08876,-19.70654 28.26184,-18.1277 2.17308,1.57884 -9.33712,29.92577 -8.50708,32.48038 0.83005,2.55461 26.8039,18.72223 25.97386,21.27684 -0.83004,2.55461 -31.34643,0.36744 -33.51951,1.94628 -2.17308,1.57883 -9.52303,31.277507 -12.20911,31.277507 z"
       transform="translate(458.13468,428.8629)"
       inkscape:transform-center-y="4.5439226" />
    <path
       inkscape:transform-center-y="4.5439226"
       transform="translate(564.43389,428.8629)"
       d="m -384.98712,-77.766273 c -2.68608,-10e-7 -10.03604,-29.698677 -12.20912,-31.277517 -2.17308,-1.57883 -32.68946,0.60834 -33.5195,-1.94627 -0.83004,-2.55461 25.14381,-18.72223 25.97386,-21.27684 0.83004,-2.55461 -10.68017,-30.90154 -8.50708,-32.48038 2.17308,-1.57883 25.57576,18.1277 28.26184,18.1277 2.68608,0 26.08876,-19.70654 28.26184,-18.1277 2.17308,1.57884 -9.33712,29.92577 -8.50708,32.48038 0.83005,2.55461 26.8039,18.72223 25.97386,21.27684 -0.83004,2.55461 -31.34643,0.36744 -33.51951,1.94628 -2.17308,1.57883 -9.52303,31.277507 -12.20911,31.277507 z"
       inkscape:randomized="0"
       inkscape:rounded="0.08"
       inkscape:flatsided="false"
       sodipodi:arg2="2.1991149"
       sodipodi:arg1="1.5707963"
       sodipodi:r2="20.771387"
       sodipodi:r1="48.081917"
       sodipodi:cy="-125.84819"
       sodipodi:cx="-384.98712"
       sodipodi:sides="5"
       id="path5661"
       style="fill:none;stroke:#000000;stroke-width:0.35433072;stroke-miterlimit:4;stroke-opacity:1;stroke-dasharray:none"
       sodipodi:type="star" />
    <path
       sodipodi:type="star"
       style="fill:none;stroke:#000000;stroke-width:0.35433072;stroke-miterlimit:4;stroke-opacity:1;stroke-dasharray:none"
       id="path5663"
       sodipodi:sides="5"
       sodipodi:cx="-384.98712"
       sodipodi:cy="-125.84819"
       sodipodi:r1="48.081917"
       sodipodi:r2="20.771387"
       sodipodi:arg1="1.5707963"
       sodipodi:arg2="2.1991149"
       inkscape:flatsided="false"
       inkscape:rounded="0.08"
       inkscape:randomized="0"
       d="m -384.98712,-77.766273 c -2.68608,-10e-7 -10.03604,-29.698677 -12.20912,-31.277517 -2.17308,-1.57883 -32.68946,0.60834 -33.5195,-1.94627 -0.83004,-2.55461 25.14381,-18.72223 25.97386,-21.27684 0.83004,-2.55461 -10.68017,-30.90154 -8.50708,-32.48038 2.17308,-1.57883 25.57576,18.1277 28.26184,18.1277 2.68608,0 26.08876,-19.70654 28.26184,-18.1277 2.17308,1.57884 -9.33712,29.92577 -8.50708,32.48038 0.83005,2.55461 26.8039,18.72223 25.97386,21.27684 -0.83004,2.55461 -31.34643,0.36744 -33.51951,1.94628 -2.17308,1.57883 -9.52303,31.277507 -12.20911,31.277507 z"
       transform="translate(670.7331,428.8629)"
       inkscape:transform-center-y="4.5439226" />
    <path
       inkscape:transform-center-y="4.5439226"
       transform="translate(777.03231,428.8629)"
       d="m -384.98712,-77.766273 c -2.68608,-10e-7 -10.03604,-29.698677 -12.20912,-31.277517 -2.17308,-1.57883 -32.68946,0.60834 -33.5195,-1.94627 -0.83004,-2.55461 25.14381,-18.72223 25.97386,-21.27684 0.83004,-2.55461 -10.68017,-30.90154 -8.50708,-32.48038 2.17308,-1.57883 25.57576,18.1277 28.26184,18.1277 2.68608,0 26.08876,-19.70654 28.26184,-18.1277 2.17308,1.57884 -9.33712,29.92577 -8.50708,32.48038 0.83005,2.55461 26.8039,18.72223 25.97386,21.27684 -0.83004,2.55461 -31.34643,0.36744 -33.51951,1.94628 -2.17308,1.57883 -9.52303,31.277507 -12.20911,31.277507 z"
       inkscape:randomized="0"
       inkscape:rounded="0.08"
       inkscape:flatsided="false"
       sodipodi:arg2="2.1991149"
       sodipodi:arg1="1.5707963"
       sodipodi:r2="20.771387"
       sodipodi:r1="48.081917"
       sodipodi:cy="-125.84819"
       sodipodi:cx="-384.98712"
       sodipodi:sides="5"
       id="path5665"
       style="fill:none;stroke:#000000;stroke-width:0.35433072;stroke-miterlimit:4;stroke-opacity:1;stroke-dasharray:none"
       sodipodi:type="star" />
    <path
       sodipodi:type="star"
       style="fill:none;stroke:#000000;stroke-width:0.35433072;stroke-miterlimit:4;stroke-opacity:1;stroke-dasharray:none"
       id="path5667"
       sodipodi:sides="5"
       sodipodi:cx="-384.98712"
       sodipodi:cy="-125.84819"
       sodipodi:r1="48.081917"
       sodipodi:r2="20.771387"
       sodipodi:arg1="1.5707963"
       sodipodi:arg2="2.1991149"
       inkscape:flatsided="false"
       inkscape:rounded="0.08"
       inkscape:randomized="0"
       d="m -384.98712,-77.766273 c -2.68608,-10e-7 -10.03604,-29.698677 -12.20912,-31.277517 -2.17308,-1.57883 -32.68946,0.60834 -33.5195,-1.94627 -0.83004,-2.55461 25.14381,-18.72223 25.97386,-21.27684 0.83004,-2.55461 -10.68017,-30.90154 -8.50708,-32.48038 2.17308,-1.57883 25.57576,18.1277 28.26184,18.1277 2.68608,0 26.08876,-19.70654 28.26184,-18.1277 2.17308,1.57884 -9.33712,29.92577 -8.50708,32.48038 0.83005,2.55461 26.8039,18.72223 25.97386,21.27684 -0.83004,2.55461 -31.34643,0.36744 -33.51951,1.94628 -2.17308,1.57883 -9.52303,31.277507 -12.20911,31.277507 z"
       transform="translate(883.33152,428.8629)"
       inkscape:transform-center-y="4.5439226" />
    <path
       inkscape:transform-center-y="4.5439226"
       transform="translate(457.27519,538.01852)"
       d="m -384.98712,-77.766273 c -2.68608,-10e-7 -10.03604,-29.698677 -12.20912,-31.277517 -2.17308,-1.57883 -32.68946,0.60834 -33.5195,-1.94627 -0.83004,-2.55461 25.14381,-18.72223 25.97386,-21.27684 0.83004,-2.55461 -10.68017,-30.90154 -8.50708,-32.48038 2.17308,-1.57883 25.57576,18.1277 28.26184,18.1277 2.68608,0 26.08876,-19.70654 28.26184,-18.1277 2.17308,1.57884 -9.33712,29.92577 -8.50708,32.48038 0.83005,2.55461 26.8039,18.72223 25.97386,21.27684 -0.83004,2.55461 -31.34643,0.36744 -33.51951,1.94628 -2.17308,1.57883 -9.52303,31.277507 -12.20911,31.277507 z"
       inkscape:randomized="0"
       inkscape:rounded="0.08"
       inkscape:flatsided="false"
       sodipodi:arg2="2.1991149"
       sodipodi:arg1="1.5707963"
       sodipodi:r2="20.771387"
       sodipodi:r1="48.081917"
       sodipodi:cy="-125.84819"
       sodipodi:cx="-384.98712"
       sodipodi:sides="5"
       id="path5669"
       style="fill:none;stroke:#000000;stroke-width:0.35433072;stroke-miterlimit:4;stroke-opacity:1;stroke-dasharray:none"
       sodipodi:type="star" />
    <path
       sodipodi:type="star"
       style="fill:none;stroke:#000000;stroke-width:0.35433072;stroke-miterlimit:4;stroke-opacity:1;stroke-dasharray:none"
       id="path5671"
       sodipodi:sides="5"
       sodipodi:cx="-384.98712"
       sodipodi:cy="-125.84819"
       sodipodi:r1="48.081917"
       sodipodi:r2="20.771387"
       sodipodi:arg1="1.5707963"
       sodipodi:arg2="2.1991149"
       inkscape:flatsided="false"
       inkscape:rounded="0.08"
       inkscape:randomized="0"
       d="m -384.98712,-77.766273 c -2.68608,-10e-7 -10.03604,-29.698677 -12.20912,-31.277517 -2.17308,-1.57883 -32.68946,0.60834 -33.5195,-1.94627 -0.83004,-2.55461 25.14381,-18.72223 25.97386,-21.27684 0.83004,-2.55461 -10.68017,-30.90154 -8.50708,-32.48038 2.17308,-1.57883 25.57576,18.1277 28.26184,18.1277 2.68608,0 26.08876,-19.70654 28.26184,-18.1277 2.17308,1.57884 -9.33712,29.92577 -8.50708,32.48038 0.83005,2.55461 26.8039,18.72223 25.97386,21.27684 -0.83004,2.55461 -31.34643,0.36744 -33.51951,1.94628 -2.17308,1.57883 -9.52303,31.277507 -12.20911,31.277507 z"
       transform="translate(563.5744,538.01852)"
       inkscape:transform-center-y="4.5439226" />
    <path
       inkscape:transform-center-y="4.5439226"
       transform="translate(669.87361,538.01852)"
       d="m -384.98712,-77.766273 c -2.68608,-10e-7 -10.03604,-29.698677 -12.20912,-31.277517 -2.17308,-1.57883 -32.68946,0.60834 -33.5195,-1.94627 -0.83004,-2.55461 25.14381,-18.72223 25.97386,-21.27684 0.83004,-2.55461 -10.68017,-30.90154 -8.50708,-32.48038 2.17308,-1.57883 25.57576,18.1277 28.26184,18.1277 2.68608,0 26.08876,-19.70654 28.26184,-18.1277 2.17308,1.57884 -9.33712,29.92577 -8.50708,32.48038 0.83005,2.55461 26.8039,18.72223 25.97386,21.27684 -0.83004,2.55461 -31.34643,0.36744 -33.51951,1.94628 -2.17308,1.57883 -9.52303,31.277507 -12.20911,31.277507 z"
       inkscape:randomized="0"
       inkscape:rounded="0.08"
       inkscape:flatsided="false"
       sodipodi:arg2="2.1991149"
       sodipodi:arg1="1.5707963"
       sodipodi:r2="20.771387"
       sodipodi:r1="48.081917"
       sodipodi:cy="-125.84819"
       sodipodi:cx="-384.98712"
       sodipodi:sides="5"
       id="path5673"
       style="fill:none;stroke:#000000;stroke-width:0.35433072;stroke-miterlimit:4;stroke-opacity:1;stroke-dasharray:none"
       sodipodi:type="star" />
    <path
       sodipodi:type="star"
       style="fill:none;stroke:#000000;stroke-width:0.35433072;stroke-miterlimit:4;stroke-opacity:1;stroke-dasharray:none"
       id="path5675"
       sodipodi:sides="5"
       sodipodi:cx="-384.98712"
       sodipodi:cy="-125.84819"
       sodipodi:r1="48.081917"
       sodipodi:r2="20.771387"
       sodipodi:arg1="1.5707963"
       sodipodi:arg2="2.1991149"
       inkscape:flatsided="false"
       inkscape:rounded="0.08"
       inkscape:randomized="0"
       d="m -384.98712,-77.766273 c -2.68608,-10e-7 -10.03604,-29.698677 -12.20912,-31.277517 -2.17308,-1.57883 -32.68946,0.60834 -33.5195,-1.94627 -0.83004,-2.55461 25.14381,-18.72223 25.97386,-21.27684 0.83004,-2.55461 -10.68017,-30.90154 -8.50708,-32.48038 2.17308,-1.57883 25.57576,18.1277 28.26184,18.1277 2.68608,0 26.08876,-19.70654 28.26184,-18.1277 2.17308,1.57884 -9.33712,29.92577 -8.50708,32.48038 0.83005,2.55461 26.8039,18.72223 25.97386,21.27684 -0.83004,2.55461 -31.34643,0.36744 -33.51951,1.94628 -2.17308,1.57883 -9.52303,31.277507 -12.20911,31.277507 z"
       transform="translate(776.17282,538.01852)"
       inkscape:transform-center-y="4.5439226" />
    <path
       inkscape:transform-center-y="4.5439226"
       transform="translate(882.47203,538.01852)"
       d="m -384.98712,-77.766273 c -2.68608,-10e-7 -10.03604,-29.698677 -12.20912,-31.277517 -2.17308,-1.57883 -32.68946,0.60834 -33.5195,-1.94627 -0.83004,-2.55461 25.14381,-18.72223 25.97386,-21.27684 0.83004,-2.55461 -10.68017,-30.90154 -8.50708,-32.48038 2.17308,-1.57883 25.57576,18.1277 28.26184,18.1277 2.68608,0 26.08876,-19.70654 28.26184,-18.1277 2.17308,1.57884 -9.33712,29.92577 -8.50708,32.48038 0.83005,2.55461 26.8039,18.72223 25.97386,21.27684 -0.83004,2.55461 -31.34643,0.36744 -33.51951,1.94628 -2.17308,1.57883 -9.52303,31.277507 -12.20911,31.277507 z"
       inkscape:randomized="0"
       inkscape:rounded="0.08"
       inkscape:flatsided="false"
       sodipodi:arg2="2.1991149"
       sodipodi:arg1="1.5707963"
       sodipodi:r2="20.771387"
       sodipodi:r1="48.081917"
       sodipodi:cy="-125.84819"
       sodipodi:cx="-384.98712"
       sodipodi:sides="5"
       id="path5677"
       style="fill:none;stroke:#000000;stroke-width:0.35433072;stroke-miterlimit:4;stroke-opacity:1;stroke-dasharray:none"
       sodipodi:type="star" />
  </g>
</svg>
