<?xml version="1.0" encoding="UTF-8" standalone="no"?>
<!-- Created with Inkscape (http://www.inkscape.org/) -->

<svg
   xmlns:dc="http://purl.org/dc/elements/1.1/"
   xmlns:cc="http://creativecommons.org/ns#"
   xmlns:rdf="http://www.w3.org/1999/02/22-rdf-syntax-ns#"
   xmlns:svg="http://www.w3.org/2000/svg"
   xmlns="http://www.w3.org/2000/svg"
   xmlns:sodipodi="http://sodipodi.sourceforge.net/DTD/sodipodi-0.dtd"
   xmlns:inkscape="http://www.inkscape.org/namespaces/inkscape"
   width="2125.9841"
   height="1062.9921"
   id="svg5422"
   version="1.1"
   inkscape:version="0.48.4 r9939"
   sodipodi:docname="plexiglasanhaenger.svg">
  <defs
     id="defs5424" />
  <sodipodi:namedview
     id="base"
     pagecolor="#ffffff"
     bordercolor="#666666"
     borderopacity="1.0"
     inkscape:pageopacity="0.0"
     inkscape:pageshadow="2"
     inkscape:zoom="0.36621387"
     inkscape:cx="242.8079"
     inkscape:cy="481.61574"
     inkscape:document-units="mm"
     inkscape:current-layer="layer2"
     showgrid="false"
     units="mm"
     inkscape:snap-page="true"
     inkscape:window-width="1280"
     inkscape:window-height="737"
     inkscape:window-x="-8"
     inkscape:window-y="-8"
     inkscape:window-maximized="1" />
  <metadata
     id="metadata5427">
    <rdf:RDF>
      <cc:Work
         rdf:about="">
        <dc:format>image/svg+xml</dc:format>
        <dc:type
           rdf:resource="http://purl.org/dc/dcmitype/StillImage" />
        <dc:title />
      </cc:Work>
    </rdf:RDF>
  </metadata>
  <g
     inkscape:label="Acrylglas 3mm"
     inkscape:groupmode="layer"
     id="layer1"
     transform="translate(0,10.629915)"
     style="display:inline"
     sodipodi:insensitive="true">
    <rect
       y="7.0865331"
       x="17.716536"
       height="1027.5591"
       width="2090.5513"
       id="rect6020"
       style="fill:#d7d7ff;fill-opacity:1;stroke:none" />
  </g>
  <g
     inkscape:groupmode="layer"
     id="layer3"
     inkscape:label="History-Layer (schon graviert und geschnitten)"
     style="display:inline"
     sodipodi:insensitive="true" />
  <g
     inkscape:groupmode="layer"
     id="layer5"
     inkscape:label="Templates"
     style="display:inline"
     sodipodi:insensitive="true">
    <path
       style="color:#000000;fill:none;stroke:#000000;stroke-width:0.88582677;stroke-linecap:butt;stroke-linejoin:miter;stroke-miterlimit:4;stroke-opacity:1;stroke-dasharray:none;stroke-dashoffset:0;marker:none;visibility:visible;display:inline;overflow:visible;enable-background:accumulate"
       d="M 1402.0918,178.09843 C 1421.244,160.66018 1443.4495,146.55154 1468.1465,138.46193 1480.0726,134.21142 1495.8922,126.98163 1506.9259,136.86599 1525.6317,160.38002 1547.2612,186.07554 1578.75,190.98408 1605.0047,196.16415 1632.3482,195.68012 1658.4051,189.71315 1683.3898,186.05924 1708.359,182.12431 1733.0394,177.01866 1747.3574,172.93087 1762.64,165.66043 1777.5158,171.85306 1780.3026,172.67554 1783.0914,173.51551 1785.9497,174.05782"
       id="path6031"
       inkscape:connector-curvature="0" />
    <text
       xml:space="preserve"
       style="font-size:24px;font-style:normal;font-variant:normal;font-weight:normal;font-stretch:normal;line-height:125%;letter-spacing:0px;word-spacing:0px;fill:#000000;fill-opacity:1;stroke:none;display:inline;font-family:Arial;-inkscape-font-specification:Arial"
       x="1438.4572"
       y="109.40806"
       id="text6035"
       sodipodi:linespacing="125%"><tspan
         sodipodi:role="line"
         id="tspan6037"
         x="1438.4572"
         y="109.40806">schwarze Linien werden geschnitten</tspan></text>
    <path
       inkscape:connector-curvature="0"
       id="path6059"
       d="M 1402.0918,309.41826 C 1421.244,291.98001 1443.4495,277.87137 1468.1465,269.78176 1480.0726,265.53125 1495.8922,258.30146 1506.9259,268.18582 1525.6317,291.69985 1547.2612,317.39537 1578.75,322.30391 1605.0047,327.48398 1632.3482,326.99995 1658.4051,321.03298 1683.3898,317.37907 1708.359,313.44414 1733.0394,308.33849 1747.3574,304.2507 1762.64,296.98026 1777.5158,303.17289 1780.3026,303.99537 1783.0914,304.83534 1785.9497,305.37765"
       style="color:#000000;fill:none;stroke:#ffffff;stroke-width:0.88582677;stroke-linecap:butt;stroke-linejoin:miter;stroke-miterlimit:4;stroke-opacity:1;stroke-dasharray:none;stroke-dashoffset:0;marker:none;visibility:visible;display:inline;overflow:visible;enable-background:accumulate" />
    <path
       style="fill:#ffffff;fill-opacity:1;fill-rule:nonzero;stroke:#000000;display:inline"
       d="M 1795.7641,171.46681 C 1802.2949,171.28282 1808.8258,171.09883 1815.3566,170.91484 1817.5054,177.08479 1819.6542,183.25473 1821.803,189.42468 1824.9091,183.67682 1828.0152,177.92896 1831.1212,172.1811 1837.539,173.40515 1843.9567,174.6292 1850.3744,175.85325 1846.9497,170.28938 1843.5249,164.72551 1840.1002,159.16164 1844.3691,154.21575 1848.638,149.26985 1852.907,144.32396 1846.3761,144.50795 1839.8453,144.69194 1833.3145,144.87593 1831.1656,138.70598 1829.0168,132.53604 1826.868,126.36609 1823.762,132.11395 1820.6559,137.86181 1817.5498,143.60967 1811.1321,142.38562 1804.7143,141.16157 1798.2966,139.93752 1801.7214,145.50139 1805.1461,151.06526 1808.5709,156.62913 1804.3019,161.57502 1800.033,166.52092 1795.7641,171.46681 z"
       id="path5484-7"
       inkscape:connector-curvature="0" />
    <text
       sodipodi:linespacing="125%"
       id="text6079"
       y="248.80911"
       x="1438.4572"
       style="font-size:24px;font-style:normal;font-variant:normal;font-weight:normal;font-stretch:normal;line-height:125%;letter-spacing:0px;word-spacing:0px;fill:#000000;fill-opacity:1;stroke:none;display:inline;font-family:Arial;-inkscape-font-specification:Arial"
       xml:space="preserve"><tspan
         y="248.80911"
         x="1438.4572"
         id="tspan6081"
         sodipodi:role="line">weiße Linien werden graviert (cut mit wenig Leistung)</tspan></text>
    <path
       style="fill:#c0c0ff;fill-opacity:1;fill-rule:nonzero;stroke:#000000;stroke-width:0.88582671;stroke-linecap:butt;stroke-miterlimit:4;stroke-opacity:1;stroke-dasharray:none;stroke-dashoffset:0;display:inline"
       d="M 1691.8986,754.44201 C 1671.1153,754.44201 1654.2634,771.29568 1654.2634,792.08113 1654.2634,794.52606 1654.5151,796.91695 1654.9603,799.23204 1612.71,814.37746 1582.5036,854.77144 1582.5036,902.23622 1582.5036,962.65682 1631.4843,1011.6426 1691.8986,1011.6426 1752.3128,1011.6426 1801.2677,962.65682 1801.2677,902.23622 1801.2677,854.77144 1771.0612,814.37746 1728.811,799.23204 1729.2556,796.91695 1729.5079,794.52606 1729.5079,792.08113 1729.5079,771.29568 1712.6819,754.44201 1691.8986,754.44201 z M 1691.8986,769.46668 C 1704.387,769.46668 1714.5106,779.59141 1714.5106,792.08113 1714.5106,793.11868 1714.4394,794.15271 1714.3041,795.15318 1707.0708,793.6472 1699.5787,792.8556 1691.8986,792.8556 1684.2272,792.8556 1676.7186,793.65055 1669.493,795.15318 1669.3577,794.15271 1669.2865,793.11868 1669.2865,792.08113 1669.2865,779.59141 1679.4102,769.46668 1691.8986,769.46668 z"
       id="path6083"
       inkscape:connector-curvature="0" />
    <text
       xml:space="preserve"
       style="font-size:24px;font-style:normal;font-variant:normal;font-weight:normal;font-stretch:normal;line-height:125%;letter-spacing:0px;word-spacing:0px;fill:#000000;fill-opacity:1;stroke:none;display:inline;font-family:Arial;-inkscape-font-specification:Arial"
       x="1388.0464"
       y="683.25671"
       id="text6091"
       sodipodi:linespacing="125%"><tspan
         sodipodi:role="line"
         id="tspan6093"
         x="1388.0464"
         y="683.25671">Symmetrische Kugelvorlage für beidseitige Gravur</tspan><tspan
         sodipodi:role="line"
         x="1388.0464"
         y="713.25671"
         id="tspan6095">(kann nach dem Schneiden andersherum noch mal eingelegt</tspan><tspan
         sodipodi:role="line"
         x="1388.0464"
         y="743.25671"
         id="tspan6097">werden).</tspan></text>
    <path
       style="color:#000000;fill:none;stroke:#f9f9f9;stroke-width:0.88582677;stroke-linecap:butt;stroke-linejoin:miter;stroke-miterlimit:4;stroke-opacity:1;stroke-dasharray:none;stroke-dashoffset:0;marker:none;visibility:visible;display:inline;overflow:visible;enable-background:accumulate"
       d="M 1460.0681,549.92895 C 1479.2203,532.4907 1501.4258,518.38206 1526.1228,510.29245 1538.0489,506.04194 1553.8685,498.81215 1564.9022,508.69651 1583.608,532.21054 1605.2375,557.90606 1636.7263,562.8146 1662.981,567.99467 1690.3245,567.51064 1716.3814,561.54367 1741.3661,557.88976 1766.3353,553.95483 1791.0157,548.84918 1805.3337,544.76139 1820.6163,537.49095 1835.4921,543.68358 1838.2789,544.50606 1841.0677,545.34603 1843.926,545.88834"
       id="path3223"
       inkscape:connector-curvature="0" />
    <text
       xml:space="preserve"
       style="font-size:24px;font-style:normal;font-variant:normal;font-weight:normal;font-stretch:normal;line-height:125%;letter-spacing:0px;word-spacing:0px;fill:#000000;fill-opacity:1;stroke:none;display:inline;font-family:Arial;-inkscape-font-specification:Arial"
       x="1438.4572"
       y="387.048"
       id="text3225"
       sodipodi:linespacing="125%"><tspan
         sodipodi:role="line"
         id="tspan3227"
         x="1438.4572"
         y="387.048">10% grau ist für die Gravur der Rückseite reserviert.</tspan><tspan
         sodipodi:role="line"
         x="1438.4572"
         y="417.048"
         id="tspan3231">Dafür muss allerdings der komplette Cut spiegelsymmetrisch</tspan><tspan
         sodipodi:role="line"
         x="1438.4572"
         y="447.048"
         id="tspan3235">sein. Spiegeln geht mit der Taste h, aber immer schön</tspan><tspan
         sodipodi:role="line"
         x="1438.4572"
         y="477.048"
         id="tspan3237">gemeinsam mit der Kugel...</tspan></text>
  </g>
  <g
     inkscape:groupmode="layer"
     id="layer2"
     inkscape:label="Vorlagen zum Nachzeichen"
     style="display:none" />
  <g
     inkscape:groupmode="layer"
     id="layer7"
     inkscape:label="Gravur 2"
     style="display:inline">
    <g
       id="g3204"
       transform="matrix(0.91298366,0,0,0.91298366,-35.46802,0.67107891)">
      <path
         style="opacity:0.61111108999999997;fill:#b1b1ff;fill-opacity:1;fill-rule:nonzero;stroke:#000000;stroke-width:0.97025472000000001;stroke-linecap:butt;stroke-miterlimit:4;stroke-opacity:1;stroke-dasharray:none;stroke-dashoffset:0;display:inline"
         d="M 236.08785,73.490886 C 212.08767,73.490886 192.6274,92.951645 192.6274,116.95239 192.6274,119.77552 192.91804,122.53626 193.43218,125.20948 144.6423,142.69772 109.76043,189.34023 109.76043,244.14731 109.76043,313.91434 166.32249,370.47778 236.08785,370.47778 305.85316,370.47778 362.38537,313.91434 362.38537,244.14731 362.38537,189.34023 327.5035,142.69772 278.71367,125.20948 279.22713,122.53626 279.51844,119.77552 279.51844,116.95239 279.51844,92.951645 260.08803,73.490886 236.08785,73.490886 z M 236.08785,90.839715 C 250.50923,90.839715 262.19989,102.53064 262.19989,116.95239 262.19989,118.15044 262.11767,119.34442 261.96142,120.49966 253.60853,118.76072 244.95669,117.84666 236.08785,117.84666 227.22912,117.84666 218.5583,118.76458 210.21428,120.49966 210.05803,119.34442 209.97581,118.15044 209.97581,116.95239 209.97581,102.53064 221.66647,90.839715 236.08785,90.839715 z"
         id="path6136"
         inkscape:connector-curvature="0" />
      <path
         style="opacity:0.61111108999999997;fill:#ffffff;stroke:#000000;stroke-width:0.97025477999999998;stroke-linecap:butt;stroke-linejoin:miter;stroke-opacity:1;display:inline"
         d="M 234.14956,329.65354 C 233.9257,326.75587 232.44756,323.83779 229.51179,322.93053 226.44379,322.4868 222.42403,322.04146 220.83358,325.29731 218.78792,328.29164 219.56077,332.51718 221.74157,335.20102 224.14218,336.73209 227.47687,337.35621 230.08466,335.91151 232.13504,334.28615 233.33438,332.09127 234.14956,329.65354 z"
         id="path3019"
         inkscape:connector-curvature="0" />
      <path
         inkscape:connector-curvature="0"
         id="path3142"
         d="M 237.99624,329.65354 C 238.2201,326.75587 239.69824,323.83779 242.634,322.93053 245.70201,322.4868 249.72177,322.04146 251.31222,325.29731 253.35788,328.29164 252.58503,332.51718 250.40423,335.20102 248.00362,336.73209 244.66893,337.35621 242.06114,335.91151 240.01076,334.28615 238.81142,332.09127 237.99624,329.65354 z"
         style="opacity:0.61111108999999997;fill:#ffffff;stroke:#000000;stroke-width:0.97025477999999998;stroke-linecap:butt;stroke-linejoin:miter;stroke-opacity:1;display:inline" />
      <g
         id="g3134"
         style="opacity:0.61111109;stroke:#ffffff;stroke-width:0.88672924;display:inline"
         transform="matrix(-1.0941374,0,0,1.0942528,494.51287,-25.179138)">
        <path
           inkscape:connector-curvature="0"
           id="path3136"
           d="M 213.1183,242.91863 C 213.8978,251.00968 218.71294,258.31644 217.68445,266.77189 217.23448,275.32772 213.12459,283.43907 209.98585,291.33606 205.83149,299.02214 202.74198,307.63953 200.5184,315.99804 202.67301,324.28401 206.06823,332.96814 214.95108,335.74303 222.68394,341.55267 232.48348,342.8354 241.88875,342.28926 251.15491,344.27378 258.98494,339.70719 266.75968,335.33116 273.12863,326.89109 274.85401,314.6965 268.93163,305.53942 265.90536,297.74176 263.05003,289.98741 259.25704,282.45179 256.69631,275.0713 259.5145,267.19928 257.35114,259.69182 256.91086,253.55723 261.34743,238.27582 267.65282,248.42547 273.80235,254.55612 275.78243,263.78662 279.40205,270.7944 286.31598,268.77972 283.66529,254.88041 280.84466,249.57868 280.24534,244.79494 264.84648,242.44915 274.39068,238.45061 279.8345,236.03634 288.70967,230.73824 286.45873,241.5858 281.06837,251.09347 301.60789,256.34723 295.91763,245.07861 288.56376,240.50551 292.88785,232.05109 300.95464,235.12066 308.40242,237.18392 309.23364,255.07979 317.79024,249.87261 320.60134,241.49285 310.81474,235.98503 307.61029,229.3952 314.17846,225.97773 320.60781,220.68803 326.22427,215.35853 330.20236,209.75007 337.71127,198.54889 329.99264,193.69345 322.88707,191.59436 317.21294,201.01845 312.94469,205.96543 309.29515,210.24842 302.37344,227.64497 297.92606,215.06381 297.21031,209.10717 283.21869,200.47951 285.63989,211.45212 289.22746,215.7802 298.93077,228.63674 287.59298,228.61929 279.09345,224.91305 272.7877,217.49529 263.75614,215.13039 254.01416,213.84486 261.72237,225.92608 267.98148,225.14647 272.62972,226.61406 285.32091,227.59489 277.38335,234.39235 270.36233,237.06709 262.97499,236.78224 259.21206,229.78309 254.55465,228.99639 249.48014,237.54926 251.03011,228.48313 248.91611,224.66844 245.71653,235.87264 244.15236,227.91919 238.30053,224.19596 240.57203,238.94693 235.18063,229.96033 231.8019,229.76887 226.59568,241.46572 226.07819,231.93872 223.76201,227.64948 218.82611,238.24694 215.54071,232.24864 209.71171,238.27729 198.34967,233.21873 193.82015,228.57813 196.34505,224.93903 213.0261,220.99156 203.9362,217.316 195.24973,217.92556 187.54103,223.4797 181.28494,229.13961 173.69411,224.40881 176.47523,213.01706 179.6342,206.38095 171.03309,198.16689 171.57813,215.06303 171.44017,220.18639 170.32883,227.52313 161.33574,225.49481 162.23479,218.47226 158.34968,210.41838 155.75528,201.93222 151.46106,194.19106 142.56917,184.99796 139.8905,202.01787 143.27202,208.1962 150.25048,213.81206 153.24549,223.37952 160.87965,228.30161 168.86712,230.46606 175.54943,238.86962 168.13208,245.97891 165.13485,250.52548 162.92009,258.62297 171.60758,256.40748 177.86457,251.56437 172.1711,237.21138 182.70161,237.53344 187.81472,238.64809 181.44517,253.27038 186.84003,248.90397 185.51108,241.94845 187.64259,229.46118 197.28121,235.42919 203.9399,235.19503 208.13125,244.99447 199.37578,245.14545 189.73202,248.04203 190.9491,259.15555 191.50368,267.05787 192.31124,274.08964 200.21942,269.22765 197.53577,263.93951 197.78524,254.04909 209.26259,252.24337 212.21645,244.23884 L 213.1183,242.91863 z"
           style="fill:none;stroke:#ffffff;stroke-width:0.88672924;stroke-linecap:butt;stroke-linejoin:miter;stroke-opacity:1;display:inline" />
        <path
           inkscape:connector-curvature="0"
           id="path3138"
           d="M 233.17367,250.95713 C 230.76939,251.19311 228.14683,250.41805 225.92337,251.48133 223.31892,253.07449 221.62036,255.91559 220.80362,258.81147 220.3736,261.54822 220.23175,264.53933 221.5256,267.07964 223.00521,269.42458 225.5557,271.37568 228.59906,271.61501 231.96735,271.75692 233.86586,269.10108 235.08284,266.48507 236.16448,263.90491 235.56328,261.05963 235.71923,258.33927 234.88635,255.81335 235.31132,252.97801 233.20788,251.01414 L 233.17367,250.95713 z"
           style="fill:none;stroke:#ffffff;stroke-width:0.88672924;stroke-linecap:butt;stroke-linejoin:miter;stroke-opacity:1;display:inline" />
        <path
           inkscape:connector-curvature="0"
           id="path3140"
           d="M 249.46528,251.46625 C 245.91262,249.33551 242.50524,251.50194 240.50519,254.43775 238.4515,256.94987 238.42387,260.68392 239.30562,263.66567 240.28009,266.68073 241.00427,270.24897 244.30514,271.51513 247.14069,273.4595 250.93819,271.84034 252.20464,268.84125 254.00914,266.30963 255.02096,263.14109 254.86429,259.93529 254.02197,256.96455 253.28548,252.72473 249.93461,251.66201 249.77817,251.59676 249.62172,251.5315 249.46528,251.46625 z"
           style="fill:none;stroke:#ffffff;stroke-width:0.88672924;stroke-linecap:butt;stroke-linejoin:miter;stroke-opacity:1;display:inline" />
        <path
           inkscape:connector-curvature="0"
           id="path3144"
           d="M 230.88266,266.73963 C 229.83046,263.91467 232.18355,265.718 233.22458,266.1651 235.0043,264.22445 234.20628,258.59801 230.77998,260.81364 227.78438,263.02809 233.19519,267.09023 233.33711,263.06704 233.35361,260.09541 229.55091,263.39369 232.91911,263.4304"
           style="fill:none;stroke:#ffffff;stroke-width:0.88672924;stroke-linecap:butt;stroke-linejoin:miter;stroke-opacity:1;display:inline" />
        <path
           inkscape:connector-curvature="0"
           id="path3146"
           d="M 240.04669,264.19407 C 242.05368,267.64452 246.91848,264.80868 245.5168,261.2093 243.30287,257.02486 238.59495,263.70896 243.23262,264.09106 246.30927,264.41788 243.48347,259.42306 242.75029,262.56517 242.78601,263.21157 243.47095,263.91078 244.11959,263.4304"
           style="fill:none;stroke:#ffffff;stroke-width:0.88672924;stroke-linecap:butt;stroke-linejoin:miter;stroke-opacity:1;display:inline" />
      </g>
      <g
         transform="matrix(1.0941374,0,0,1.0942528,-22.367072,-25.179138)"
         style="opacity:0.61111109;stroke:#e6e6e6;stroke-width:0.88672924;display:inline"
         id="g3048">
        <path
           style="fill:none;stroke:#e6e6e6;stroke-width:0.88672924;stroke-linecap:butt;stroke-linejoin:miter;stroke-opacity:1;display:inline"
           d="M 213.1183,242.91863 C 213.8978,251.00968 218.71294,258.31644 217.68445,266.77189 217.23448,275.32772 213.12459,283.43907 209.98585,291.33606 205.83149,299.02214 202.74198,307.63953 200.5184,315.99804 202.67301,324.28401 206.06823,332.96814 214.95108,335.74303 222.68394,341.55267 232.48348,342.8354 241.88875,342.28926 251.15491,344.27378 258.98494,339.70719 266.75968,335.33116 273.12863,326.89109 274.85401,314.6965 268.93163,305.53942 265.90536,297.74176 263.05003,289.98741 259.25704,282.45179 256.69631,275.0713 259.5145,267.19928 257.35114,259.69182 256.91086,253.55723 261.34743,238.27582 267.65282,248.42547 273.80235,254.55612 275.78243,263.78662 279.40205,270.7944 286.31598,268.77972 283.66529,254.88041 280.84466,249.57868 280.24534,244.79494 264.84648,242.44915 274.39068,238.45061 279.8345,236.03634 288.70967,230.73824 286.45873,241.5858 281.06837,251.09347 301.60789,256.34723 295.91763,245.07861 288.56376,240.50551 292.88785,232.05109 300.95464,235.12066 308.40242,237.18392 309.23364,255.07979 317.79024,249.87261 320.60134,241.49285 310.81474,235.98503 307.61029,229.3952 314.17846,225.97773 320.60781,220.68803 326.22427,215.35853 330.20236,209.75007 337.71127,198.54889 329.99264,193.69345 322.88707,191.59436 317.21294,201.01845 312.94469,205.96543 309.29515,210.24842 302.37344,227.64497 297.92606,215.06381 297.21031,209.10717 283.21869,200.47951 285.63989,211.45212 289.22746,215.7802 298.93077,228.63674 287.59298,228.61929 279.09345,224.91305 272.7877,217.49529 263.75614,215.13039 254.01416,213.84486 261.72237,225.92608 267.98148,225.14647 272.62972,226.61406 285.32091,227.59489 277.38335,234.39235 270.36233,237.06709 262.97499,236.78224 259.21206,229.78309 254.55465,228.99639 249.48014,237.54926 251.03011,228.48313 248.91611,224.66844 245.71653,235.87264 244.15236,227.91919 238.30053,224.19596 240.57203,238.94693 235.18063,229.96033 231.8019,229.76887 226.59568,241.46572 226.07819,231.93872 223.76201,227.64948 218.82611,238.24694 215.54071,232.24864 209.71171,238.27729 198.34967,233.21873 193.82015,228.57813 196.34505,224.93903 213.0261,220.99156 203.9362,217.316 195.24973,217.92556 187.54103,223.4797 181.28494,229.13961 173.69411,224.40881 176.47523,213.01706 179.6342,206.38095 171.03309,198.16689 171.57813,215.06303 171.44017,220.18639 170.32883,227.52313 161.33574,225.49481 162.23479,218.47226 158.34968,210.41838 155.75528,201.93222 151.46106,194.19106 142.56917,184.99796 139.8905,202.01787 143.27202,208.1962 150.25048,213.81206 153.24549,223.37952 160.87965,228.30161 168.86712,230.46606 175.54943,238.86962 168.13208,245.97891 165.13485,250.52548 162.92009,258.62297 171.60758,256.40748 177.86457,251.56437 172.1711,237.21138 182.70161,237.53344 187.81472,238.64809 181.44517,253.27038 186.84003,248.90397 185.51108,241.94845 187.64259,229.46118 197.28121,235.42919 203.9399,235.19503 208.13125,244.99447 199.37578,245.14545 189.73202,248.04203 190.9491,259.15555 191.50368,267.05787 192.31124,274.08964 200.21942,269.22765 197.53577,263.93951 197.78524,254.04909 209.26259,252.24337 212.21645,244.23884 L 213.1183,242.91863 z"
           id="path3011"
           inkscape:connector-curvature="0" />
        <path
           style="fill:none;stroke:#e6e6e6;stroke-width:0.88672924;stroke-linecap:butt;stroke-linejoin:miter;stroke-opacity:1;display:inline"
           d="M 233.17367,250.95713 C 230.76939,251.19311 228.14683,250.41805 225.92337,251.48133 223.31892,253.07449 221.62036,255.91559 220.80362,258.81147 220.3736,261.54822 220.23175,264.53933 221.5256,267.07964 223.00521,269.42458 225.5557,271.37568 228.59906,271.61501 231.96735,271.75692 233.86586,269.10108 235.08284,266.48507 236.16448,263.90491 235.56328,261.05963 235.71923,258.33927 234.88635,255.81335 235.31132,252.97801 233.20788,251.01414 L 233.17367,250.95713 z"
           id="path3015"
           inkscape:connector-curvature="0" />
        <path
           style="fill:none;stroke:#e6e6e6;stroke-width:0.88672924;stroke-linecap:butt;stroke-linejoin:miter;stroke-opacity:1;display:inline"
           d="M 249.46528,251.46625 C 245.91262,249.33551 242.50524,251.50194 240.50519,254.43775 238.4515,256.94987 238.42387,260.68392 239.30562,263.66567 240.28009,266.68073 241.00427,270.24897 244.30514,271.51513 247.14069,273.4595 250.93819,271.84034 252.20464,268.84125 254.00914,266.30963 255.02096,263.14109 254.86429,259.93529 254.02197,256.96455 253.28548,252.72473 249.93461,251.66201 249.77817,251.59676 249.62172,251.5315 249.46528,251.46625 z"
           id="path3017"
           inkscape:connector-curvature="0" />
        <path
           style="fill:none;stroke:#e6e6e6;stroke-width:0.88672924;stroke-linecap:butt;stroke-linejoin:miter;stroke-opacity:1;display:inline"
           d="M 230.88266,266.73963 C 229.83046,263.91467 232.18355,265.718 233.22458,266.1651 235.0043,264.22445 234.20628,258.59801 230.77998,260.81364 227.78438,263.02809 233.19519,267.09023 233.33711,263.06704 233.35361,260.09541 229.55091,263.39369 232.91911,263.4304"
           id="path3025"
           inkscape:connector-curvature="0" />
        <path
           style="fill:none;stroke:#e6e6e6;stroke-width:0.88672924;stroke-linecap:butt;stroke-linejoin:miter;stroke-opacity:1;display:inline"
           d="M 240.04669,264.19407 C 242.05368,267.64452 246.91848,264.80868 245.5168,261.2093 243.30287,257.02486 238.59495,263.70896 243.23262,264.09106 246.30927,264.41788 243.48347,259.42306 242.75029,262.56517 242.78601,263.21157 243.47095,263.91078 244.11959,263.4304"
           id="path3027"
           inkscape:connector-curvature="0" />
      </g>
    </g>
  </g>
</svg>
