<?xml version="1.0" encoding="utf-8"?>
<!-- Generator: Adobe Illustrator 16.0.0, SVG Export Plug-In . SVG Version: 6.00 Build 0)  -->
<!DOCTYPE svg PUBLIC "-//W3C//DTD SVG 1.1//EN" "http://www.w3.org/Graphics/SVG/1.1/DTD/svg11.dtd">
<svg version="1.1" id="Ebene_1" xmlns="http://www.w3.org/2000/svg" xmlns:xlink="http://www.w3.org/1999/xlink" x="0px" y="0px"
	 width="500px" height="500px" viewBox="0 0 500 500" enable-background="new 0 0 500 500" xml:space="preserve">
<defs>
	<filter id="Adobe_OpacityMaskFilter" filterUnits="userSpaceOnUse" x="-1.327" y="-1.326" width="502.154" height="502.154">
		
			<feColorMatrix  type="matrix" values="-1 0 0 0 1  0 -1 0 0 1  0 0 -1 0 1  0 0 0 1 0" color-interpolation-filters="sRGB" result="source"/>
		<feFlood  style="flood-color:white;flood-opacity:1" result="back"/>
		<feBlend  in="source" in2="back" mode="normal"/>
	</filter>
</defs>
<mask maskUnits="userSpaceOnUse" x="-1.327" y="-1.326" width="502.154" height="502.154" id="SVGID_1_">
	<g filter="url(#Adobe_OpacityMaskFilter)">
		<g enable-background="new    ">
			<path fill="#FFFFFF" d="M157.292,240.417c4.314-0.331,8.337-1.282,12.071-2.864c3.732-1.574,6.801-3.855,9.209-6.844
				c2.401-2.986,3.608-6.967,3.608-11.944c0-7.466-2.489-13.19-7.466-17.174c-4.978-3.98-10.701-5.973-17.173-5.973
				c-8.959,0-15.722,2.947-20.282,8.835c-4.564,5.891-6.763,13.313-6.596,22.274H97.065c0.33-8.959,1.947-17.129,4.853-24.514
				c2.902-7.38,6.969-13.726,12.195-19.039c5.227-5.308,11.486-9.416,18.791-12.319c7.299-2.902,15.43-4.356,24.389-4.356
				c6.969,0,13.937,1.037,20.906,3.111c6.969,2.076,13.23,5.186,18.791,9.333c5.556,4.147,10.079,9.208,13.563,15.179
				c3.485,5.975,5.227,12.86,5.227,20.656c0,8.462-2.034,15.928-6.097,22.399c-4.068,6.47-10.164,10.87-18.292,13.191v0.498
				c9.62,2.159,17.171,6.807,22.647,13.938c5.475,7.135,8.212,15.676,8.212,25.631c0,9.129-1.785,17.26-5.35,24.392
				c-3.571,7.136-8.338,13.106-14.31,17.917c-5.974,4.814-12.861,8.465-20.657,10.953c-7.802,2.488-15.928,3.732-24.391,3.732
				c-9.792,0-18.708-1.412-26.753-4.229c-8.05-2.819-14.895-6.927-20.533-12.322c-5.642-5.39-9.998-11.983-13.066-19.784
				c-3.073-7.797-4.522-16.757-4.355-26.88h33.598c0.163,4.647,0.91,9.087,2.24,13.315c1.326,4.232,3.236,7.882,5.725,10.949
				c2.489,3.074,5.6,5.52,9.333,7.345c3.733,1.827,8.17,2.737,13.315,2.737c7.963,0,14.683-2.446,20.158-7.345
				c5.476-4.89,8.213-11.571,8.213-20.032c0-6.634-1.289-11.697-3.858-15.181c-2.573-3.485-5.848-6.014-9.83-7.591
				c-3.982-1.575-8.337-2.489-13.066-2.738c-4.729-0.247-9.251-0.373-13.564-0.373v-24.887
				C148.913,240.75,152.975,240.75,157.292,240.417z"/>
			<path fill="#FFFFFF" d="M320.555,166.501c11.448,0,22.107,1.827,31.98,5.475c9.87,3.65,18.417,9.126,25.636,16.423
				c7.216,7.304,12.854,16.426,16.92,27.377c4.063,10.952,6.102,23.812,6.102,38.574c0,12.944-1.661,24.889-4.979,35.842
				c-3.321,10.949-8.338,20.406-15.057,28.371c-6.722,7.965-15.103,14.229-25.139,18.791c-10.04,4.565-21.862,6.844-35.465,6.844
				h-76.653V166.501H320.555L320.555,166.501z M317.818,311.346c5.637,0,11.11-0.91,16.424-2.738
				c5.307-1.821,10.036-4.853,14.185-9.082c4.146-4.23,7.467-9.746,9.954-16.553c2.49-6.802,3.734-15.096,3.734-24.889
				c0-8.957-0.868-17.045-2.611-24.265c-1.745-7.217-4.604-13.396-8.588-18.541c-3.98-5.142-9.249-9.084-15.801-11.822
				c-6.56-2.735-14.646-4.106-24.267-4.106h-27.874v111.993h34.844V311.346L317.818,311.346z"/>
		</g>
	</g>
</mask>
<g opacity="0.4" mask="url(#SVGID_1_)">
	<circle cx="249.75" cy="249.751" r="251.077"/>
</g>
</svg>
