<?xml version="1.0" encoding="utf-8"?>
<!-- Generator: Adobe Illustrator 16.0.0, SVG Export Plug-In . SVG Version: 6.00 Build 0)  -->
<!DOCTYPE svg PUBLIC "-//W3C//DTD SVG 1.1//EN" "http://www.w3.org/Graphics/SVG/1.1/DTD/svg11.dtd">
<svg version="1.1" id="Ebene_1" xmlns="http://www.w3.org/2000/svg" xmlns:xlink="http://www.w3.org/1999/xlink" x="0px" y="0px"
	 width="50px" height="50px" viewBox="0 0 50 50" enable-background="new 0 0 50 50" xml:space="preserve">
<defs>
	<filter id="Adobe_OpacityMaskFilter" filterUnits="userSpaceOnUse" x="2" y="13" width="45" height="25">
		
			<feColorMatrix  type="matrix" values="-1 0 0 0 1  0 -1 0 0 1  0 0 -1 0 1  0 0 0 1 0" color-interpolation-filters="sRGB" result="source"/>
		<feFlood  style="flood-color:white;flood-opacity:1" result="back"/>
		<feBlend  in="source" in2="back" mode="normal"/>
	</filter>
</defs>
<mask maskUnits="userSpaceOnUse" x="2" y="13" width="45" height="25" id="SVGID_2_">
	<g filter="url(#Adobe_OpacityMaskFilter)">
		<g>
			<g>
				<rect x="11.312" y="18.018" fill="none" width="27.793" height="15.371"/>
			</g>
			<g enable-background="new    ">
				<path fill="#FFFFFF" d="M17.129,24.255c0.364-0.028,0.704-0.108,1.019-0.241c0.315-0.134,0.574-0.326,0.777-0.578
					s0.305-0.588,0.305-1.008c0-0.63-0.21-1.113-0.63-1.449s-0.903-0.504-1.449-0.504c-0.756,0-1.327,0.249-1.711,0.746
					c-0.385,0.497-0.571,1.123-0.557,1.879h-2.835c0.028-0.756,0.165-1.445,0.41-2.068c0.245-0.623,0.588-1.158,1.029-1.606
					s0.969-0.795,1.585-1.04c0.616-0.244,1.302-0.367,2.058-0.367c0.588,0,1.176,0.088,1.764,0.263s1.116,0.438,1.585,0.787
					c0.469,0.351,0.851,0.777,1.145,1.281s0.441,1.085,0.441,1.743c0,0.714-0.171,1.344-0.515,1.89s-0.857,0.917-1.543,1.113v0.042
					c0.812,0.182,1.449,0.574,1.911,1.176c0.462,0.603,0.693,1.323,0.693,2.163c0,0.771-0.15,1.456-0.451,2.059
					c-0.301,0.602-0.704,1.105-1.208,1.512c-0.504,0.406-1.085,0.714-1.743,0.924c-0.658,0.21-1.344,0.315-2.058,0.315
					c-0.826,0-1.579-0.119-2.257-0.357c-0.679-0.238-1.257-0.584-1.732-1.039c-0.476-0.455-0.844-1.012-1.103-1.67
					c-0.259-0.658-0.382-1.414-0.368-2.268h2.835c0.014,0.392,0.077,0.766,0.189,1.123c0.112,0.357,0.273,0.665,0.483,0.924
					c0.21,0.26,0.473,0.466,0.788,0.62c0.315,0.153,0.689,0.23,1.124,0.23c0.672,0,1.239-0.206,1.701-0.619s0.693-0.977,0.693-1.69
					c0-0.561-0.108-0.987-0.326-1.281c-0.217-0.294-0.493-0.508-0.829-0.641s-0.704-0.21-1.103-0.231
					c-0.399-0.021-0.781-0.031-1.145-0.031v-2.1C16.422,24.283,16.765,24.283,17.129,24.255z"/>
				<path fill="#FFFFFF" d="M30.905,18.018c0.966,0,1.865,0.154,2.698,0.462c0.833,0.309,1.555,0.771,2.163,1.386
					c0.609,0.617,1.085,1.387,1.428,2.311c0.344,0.924,0.515,2.009,0.515,3.255c0,1.092-0.14,2.1-0.42,3.024
					c-0.28,0.924-0.703,1.722-1.271,2.394s-1.274,1.201-2.12,1.586c-0.848,0.385-1.846,0.577-2.993,0.577h-6.468V18.018H30.905z
					 M30.674,30.239c0.477,0,0.938-0.076,1.387-0.23c0.447-0.154,0.847-0.409,1.197-0.767c0.35-0.357,0.629-0.822,0.84-1.396
					c0.209-0.574,0.314-1.273,0.314-2.1c0-0.757-0.073-1.438-0.221-2.048c-0.146-0.609-0.389-1.131-0.725-1.564
					s-0.78-0.767-1.333-0.998c-0.554-0.23-1.235-0.346-2.048-0.346h-2.352v9.449H30.674z"/>
			</g>
		</g>
	</g>
</mask>
<path opacity="0.5" mask="url(#SVGID_2_)" enable-background="new    " d="M47,26c0,6.627-5.373,12-12,12H14C7.373,38,2,32.627,2,26
	v-1c0-6.627,5.373-12,12-12h21c6.627,0,12,5.373,12,12V26z"/>
</svg>
