<?xml version="1.0" encoding="utf-8"?>
<!-- Generator: Adobe Illustrator 16.0.0, SVG Export Plug-In . SVG Version: 6.00 Build 0)  -->
<!DOCTYPE svg PUBLIC "-//W3C//DTD SVG 1.1//EN" "http://www.w3.org/Graphics/SVG/1.1/DTD/svg11.dtd">
<svg version="1.1" id="Ebene_1" xmlns="http://www.w3.org/2000/svg" xmlns:xlink="http://www.w3.org/1999/xlink" x="0px" y="0px"
	 width="500px" height="500px" viewBox="0 0 500 500" enable-background="new 0 0 500 500" xml:space="preserve">
<defs>
	<filter id="Adobe_OpacityMaskFilter" filterUnits="userSpaceOnUse" x="2.173" y="2.174" width="499.654" height="499.654">
		
			<feColorMatrix  type="matrix" values="-1 0 0 0 1  0 -1 0 0 1  0 0 -1 0 1  0 0 0 1 0" color-interpolation-filters="sRGB" result="source"/>
		<feFlood  style="flood-color:white;flood-opacity:1" result="back"/>
		<feBlend  in="source" in2="back" mode="normal"/>
	</filter>
</defs>
<mask maskUnits="userSpaceOnUse" x="2.173" y="2.174" width="499.654" height="499.654" id="SVGID_1_">
	<g filter="url(#Adobe_OpacityMaskFilter)">
		<g enable-background="new    ">
			<path fill="#FFFFFF" d="M147.374,169.165v144.124h86.178v32.688H108.495V169.165H147.374L147.374,169.165z"/>
			<path fill="#FFFFFF" d="M368.757,216.338c-2.311-3.714-5.198-6.972-8.667-9.781c-3.467-2.806-7.391-4.991-11.764-6.562
				c-4.374-1.567-8.957-2.352-13.74-2.352c-8.753,0-16.182,1.693-22.289,5.074c-6.109,3.387-11.062,7.926-14.857,13.62
				c-3.799,5.696-6.562,12.178-8.295,19.439c-1.733,7.266-2.6,14.777-2.6,22.535c0,7.431,0.865,14.652,2.6,21.67
				s4.496,13.33,8.295,18.942c3.797,5.614,8.748,10.115,14.857,13.495c6.107,3.387,13.536,5.078,22.289,5.078
				c11.883,0,21.17-3.63,27.859-10.896c6.686-7.264,10.771-16.84,12.258-28.727h37.64c-0.989,11.062-3.552,21.049-7.678,29.965
				c-4.127,8.914-9.575,16.51-16.341,22.782c-6.773,6.276-14.696,11.062-23.772,14.362c-9.083,3.301-19.068,4.953-29.964,4.953
				c-13.538,0-25.714-2.355-36.525-7.059c-10.815-4.705-19.936-11.182-27.363-19.439c-7.43-8.254-13.125-17.953-17.09-29.097
				c-3.959-11.144-5.94-23.153-5.94-36.028c0-13.208,1.981-25.466,5.94-36.775c3.964-11.306,9.66-21.172,17.09-29.592
				c7.429-8.421,16.548-15.022,27.363-19.811c10.812-4.786,22.987-7.183,36.525-7.183c9.737,0,18.944,1.406,27.611,4.212
				c8.668,2.807,16.425,6.894,23.277,12.257c6.849,5.367,12.508,12.009,16.964,19.935c4.458,7.924,7.264,17.006,8.419,27.24h-37.64
				C372.554,224.14,371.068,220.052,368.757,216.338z"/>
		</g>
	</g>
</mask>
<circle opacity="0.4" mask="url(#SVGID_1_)" cx="252" cy="252.001" r="249.827"/>
</svg>
