<?xml version="1.0" encoding="utf-8"?>
<!-- Generator: Adobe Illustrator 16.0.0, SVG Export Plug-In . SVG Version: 6.00 Build 0)  -->
<!DOCTYPE svg PUBLIC "-//W3C//DTD SVG 1.1//EN" "http://www.w3.org/Graphics/SVG/1.1/DTD/svg11.dtd">
<svg version="1.1" id="Ebene_1" xmlns="http://www.w3.org/2000/svg" xmlns:xlink="http://www.w3.org/1999/xlink" x="0px" y="0px"
	 width="50px" height="50px" viewBox="0 0 50 50" enable-background="new 0 0 50 50" xml:space="preserve">
<defs>
	<filter id="Adobe_OpacityMaskFilter" filterUnits="userSpaceOnUse" x="2" y="13" width="45" height="25">
		
			<feColorMatrix  type="matrix" values="-1 0 0 0 1  0 -1 0 0 1  0 0 -1 0 1  0 0 0 1 0" color-interpolation-filters="sRGB" result="source"/>
		<feFlood  style="flood-color:white;flood-opacity:1" result="back"/>
		<feBlend  in="source" in2="back" mode="normal"/>
	</filter>
</defs>
<mask maskUnits="userSpaceOnUse" x="2" y="13" width="45" height="25" id="SVGID_1_">
	<g filter="url(#Adobe_OpacityMaskFilter)">
		<g>
			<path fill="#FFFFFF" d="M15.058,18.018V30.24h7.308v2.771H11.761V18.018H15.058z"/>
			<path fill="#FFFFFF" d="M33.832,22.018c-0.195-0.315-0.441-0.591-0.734-0.83c-0.295-0.238-0.627-0.423-0.998-0.556
				c-0.371-0.133-0.76-0.2-1.166-0.2c-0.742,0-1.371,0.144-1.89,0.431c-0.519,0.287-0.938,0.672-1.261,1.155
				c-0.321,0.483-0.557,1.033-0.703,1.648c-0.146,0.616-0.221,1.253-0.221,1.911c0,0.63,0.074,1.243,0.221,1.837
				c0.146,0.596,0.382,1.131,0.703,1.605c0.322,0.478,0.742,0.858,1.261,1.146s1.147,0.431,1.89,0.431
				c1.008,0,1.797-0.308,2.362-0.924c0.567-0.615,0.914-1.428,1.04-2.438h3.191c-0.084,0.938-0.301,1.785-0.65,2.541
				c-0.352,0.758-0.812,1.4-1.387,1.934c-0.575,0.533-1.246,0.938-2.016,1.218c-0.771,0.28-1.617,0.421-2.541,0.421
				c-1.148,0-2.182-0.199-3.099-0.6c-0.917-0.398-1.69-0.948-2.319-1.648c-0.631-0.699-1.114-1.521-1.45-2.468
				c-0.336-0.944-0.504-1.963-0.504-3.055c0-1.12,0.168-2.159,0.504-3.119c0.336-0.958,0.819-1.795,1.45-2.509
				c0.629-0.714,1.402-1.274,2.319-1.68c0.917-0.406,1.949-0.609,3.099-0.609c0.825,0,1.605,0.119,2.342,0.357
				c0.733,0.238,1.393,0.585,1.974,1.04s1.062,1.019,1.438,1.69c0.377,0.672,0.615,1.442,0.713,2.31h-3.19
				C34.152,22.68,34.027,22.333,33.832,22.018z"/>
		</g>
	</g>
</mask>
<path opacity="0.5" mask="url(#SVGID_1_)" d="M47,26c0,6.627-5.373,12-12,12H14C7.373,38,2,32.627,2,26v-1c0-6.627,5.373-12,12-12
	h21c6.627,0,12,5.373,12,12V26z"/>
</svg>
