<?xml version="1.0" encoding="utf-8"?>
<!-- Generator: Adobe Illustrator 16.0.0, SVG Export Plug-In . SVG Version: 6.00 Build 0)  -->
<!DOCTYPE svg PUBLIC "-//W3C//DTD SVG 1.1//EN" "http://www.w3.org/Graphics/SVG/1.1/DTD/svg11.dtd">
<svg version="1.1" id="Ebene_1" xmlns="http://www.w3.org/2000/svg" xmlns:xlink="http://www.w3.org/1999/xlink" x="0px" y="0px"
	 width="500px" height="500px" viewBox="0 0 500 500" enable-background="new 0 0 500 500" xml:space="preserve">
<defs>
	<filter id="Adobe_OpacityMaskFilter" filterUnits="userSpaceOnUse" x="1.173" y="1.174" width="496.654" height="496.654">
		
			<feColorMatrix  type="matrix" values="-1 0 0 0 1  0 -1 0 0 1  0 0 -1 0 1  0 0 0 1 0" color-interpolation-filters="sRGB" result="source"/>
		<feFlood  style="flood-color:white;flood-opacity:1" result="back"/>
		<feBlend  in="source" in2="back" mode="normal"/>
	</filter>
</defs>
<mask maskUnits="userSpaceOnUse" x="1.173" y="1.174" width="496.654" height="496.654" id="SVGID_1_">
	<g filter="url(#Adobe_OpacityMaskFilter)">
		<g enable-background="new    ">
			<path fill="#FFFFFF" d="M145.01,342.912l-56.861-175.75h39.63l39.137,123.566h0.493l39.63-123.566h39.875l-58.337,175.75H145.01z
				"/>
			<path fill="#FFFFFF" d="M374.664,214.052c-2.299-3.692-5.169-6.93-8.615-9.723c-3.447-2.788-7.348-4.961-11.69-6.523
				c-4.351-1.557-8.905-2.338-13.66-2.338c-8.701,0-16.087,1.684-22.153,5.044c-6.073,3.366-10.997,7.879-14.77,13.538
				c-3.778,5.662-6.525,12.104-8.246,19.323c-1.725,7.223-2.584,14.688-2.584,22.398c0,7.387,0.859,14.564,2.584,21.539
				c1.724,6.977,4.468,13.252,8.246,18.83c3.771,5.58,8.695,10.055,14.77,13.414c6.066,3.365,13.452,5.047,22.153,5.047
				c11.812,0,21.044-3.606,27.691-10.83c6.644-7.22,10.704-16.737,12.183-28.554h37.416c-0.984,10.996-3.531,20.923-7.63,29.784
				c-4.103,8.861-9.521,16.41-16.247,22.646c-6.73,6.238-14.605,10.994-23.629,14.275c-9.026,3.28-18.953,4.924-29.78,4.924
				c-13.459,0-25.562-2.342-36.309-7.017c-10.749-4.677-19.816-11.113-27.202-19.322c-7.383-8.204-13.043-17.846-16.982-28.923
				c-3.939-11.076-5.908-23.014-5.908-35.812c0-13.127,1.969-25.312,5.908-36.553c3.938-11.238,9.6-21.045,16.982-29.415
				c7.386-8.371,16.453-14.932,27.202-19.692c10.745-4.757,22.85-7.14,36.309-7.14c9.677,0,18.829,1.398,27.443,4.187
				c8.615,2.791,16.327,6.853,23.14,12.184c6.806,5.335,12.431,11.937,16.86,19.815c4.43,7.876,7.217,16.904,8.369,27.077h-37.414
				C378.438,221.808,376.961,217.744,374.664,214.052z"/>
		</g>
	</g>
</mask>
<circle opacity="0.4" mask="url(#SVGID_1_)" cx="249.5" cy="249.501" r="248.327"/>
</svg>
